<?xml version="1.0" standalone="no"?>
<!DOCTYPE svg PUBLIC "-//W3C//DTD SVG 1.1//EN" 
  "http://www.w3.org/Graphics/SVG/1.1/DTD/svg11.dtd">
<svg width="1024" height="512" viewBox="0 0 1024 512"
     xmlns="http://www.w3.org/2000/svg" version="1.1">
<desc>'12NCS.blend', 12NCS_mergedObject.018, (Blender 2.78 (sub 0))</desc>
<polygon stroke="black" stroke-width="1" points="907.347,443.624 919.713,436.386 908.480,409.016 894.617,412.774 " />
<polygon stroke="black" stroke-width="1" points="894.617,412.774 908.480,409.016 904.736,379.646 890.349,379.657 " />
<polygon stroke="black" stroke-width="1" points="890.349,379.657 904.736,379.646 908.814,350.240 894.856,346.523 " />
<polygon stroke="black" stroke-width="1" points="894.856,346.523 908.814,350.240 920.330,322.823 907.840,315.602 " />
<polygon stroke="black" stroke-width="1" points="1018.425,507.168 1018.314,492.739 988.810,489.008 985.215,502.966 " />
<polygon stroke="black" stroke-width="1" points="907.840,315.602 920.330,322.823 938.621,299.235 928.354,289.036 " />
<polygon stroke="black" stroke-width="1" points="985.215,502.966 988.810,489.008 961.303,477.795 954.277,490.307 " />
<polygon stroke="black" stroke-width="1" points="928.354,289.036 938.621,299.235 962.352,281.167 955.115,268.637 " />
<polygon stroke="black" stroke-width="1" points="954.277,490.307 961.303,477.795 937.780,459.826 927.666,470.084 " />
<polygon stroke="black" stroke-width="1" points="955.115,268.637 962.352,281.167 989.995,269.828 986.217,255.850 " />
<polygon stroke="black" stroke-width="1" points="927.666,470.084 937.780,459.826 919.713,436.386 907.347,443.624 " />
<polygon stroke="black" stroke-width="1" points="986.217,255.850 989.995,269.828 1019.584,266.031 1019.581,251.537 " />
<polygon stroke="black" stroke-width="1" points="181.512,219.116 126.868,156.621 105.837,168.260 150.467,237.491 " />
<polygon stroke="black" stroke-width="1" points="209.462,196.619 145.902,141.931 126.868,156.621 181.512,219.116 " />
<polygon stroke="black" stroke-width="1" points="233.677,170.398 162.482,124.439 145.902,141.931 209.462,196.619 " />
<polygon stroke="black" stroke-width="1" points="253.630,141.025 176.181,104.504 162.482,124.439 233.677,170.398 " />
<polygon stroke="black" stroke-width="1" points="45.593,266.938 34.424,184.169 8.253,183.416 8.858,268.897 " />
<polygon stroke="black" stroke-width="1" points="268.953,109.195 186.653,82.557 176.181,104.504 253.630,141.025 " />
<polygon stroke="black" stroke-width="1" points="81.847,261.291 59.380,181.999 34.424,184.169 45.593,266.938 " />
<polygon stroke="black" stroke-width="1" points="279.475,75.661 193.661,59.055 186.653,82.557 268.953,109.195 " />
<polygon stroke="black" stroke-width="1" points="117.018,251.546 83.234,176.722 59.380,181.999 81.847,261.291 " />
<polygon stroke="black" stroke-width="1" points="285.216,41.164 197.089,34.428 193.661,59.055 279.475,75.661 " />
<polygon stroke="black" stroke-width="1" points="150.467,237.491 105.837,168.260 83.234,176.722 117.018,251.546 " />
<polygon stroke="black" stroke-width="1" points="286.387,6.442 196.933,9.089 197.089,34.428 285.216,41.164 " />
<polygon stroke="black" stroke-width="1" points="162.482,124.439 128.802,100.671 116.855,113.433 145.902,141.931 " />
<polygon stroke="black" stroke-width="1" points="176.181,104.504 138.498,86.003 128.802,100.671 162.482,124.439 " />
<polygon stroke="black" stroke-width="1" points="34.424,184.169 34.690,140.431 15.438,137.201 8.253,183.416 " />
<polygon stroke="black" stroke-width="1" points="186.653,82.557 145.641,69.743 138.498,86.003 176.181,104.504 " />
<polygon stroke="black" stroke-width="1" points="59.380,181.999 53.199,140.528 34.690,140.431 34.424,184.169 " />
<polygon stroke="black" stroke-width="1" points="193.661,59.055 149.974,52.217 145.641,69.743 186.653,82.557 " />
<polygon stroke="black" stroke-width="1" points="83.234,176.722 70.877,137.715 53.199,140.528 59.380,181.999 " />
<polygon stroke="black" stroke-width="1" points="197.089,34.428 151.280,33.724 149.974,52.217 193.661,59.055 " />
<polygon stroke="black" stroke-width="1" points="105.837,168.260 87.561,132.158 70.877,137.715 83.234,176.722 " />
<polygon stroke="black" stroke-width="1" points="196.933,9.089 149.341,14.549 151.280,33.724 197.089,34.428 " />
<polygon stroke="black" stroke-width="1" points="126.868,156.621 102.993,124.005 87.561,132.158 105.837,168.260 " />
<polygon stroke="black" stroke-width="1" points="145.902,141.931 116.855,113.433 102.993,124.005 126.868,156.621 " />
<polygon stroke="black" stroke-width="1" points="151.280,33.724 110.858,36.810 111.105,48.116 149.974,52.217 " />
<polygon stroke="black" stroke-width="1" points="87.561,132.158 72.689,98.892 62.126,102.060 70.877,137.715 " />
<polygon stroke="black" stroke-width="1" points="149.341,14.549 108.109,25.440 110.858,36.810 151.280,33.724 " />
<polygon stroke="black" stroke-width="1" points="102.993,124.005 82.554,93.823 72.689,98.892 87.561,132.158 " />
<polygon stroke="black" stroke-width="1" points="116.855,113.433 91.417,87.054 82.554,93.823 102.993,124.005 " />
<polygon stroke="black" stroke-width="1" points="128.802,100.671 98.978,78.813 91.417,87.054 116.855,113.433 " />
<polygon stroke="black" stroke-width="1" points="138.498,86.003 104.948,69.400 98.978,78.813 128.802,100.671 " />
<polygon stroke="black" stroke-width="1" points="34.690,140.431 40.039,101.975 29.100,98.353 15.438,137.201 " />
<polygon stroke="black" stroke-width="1" points="145.641,69.743 109.066,59.071 104.948,69.400 138.498,86.003 " />
<polygon stroke="black" stroke-width="1" points="53.199,140.528 51.154,103.149 40.039,101.975 34.690,140.431 " />
<polygon stroke="black" stroke-width="1" points="149.974,52.217 111.105,48.116 109.066,59.071 145.641,69.743 " />
<polygon stroke="black" stroke-width="1" points="70.877,137.715 62.126,102.060 51.154,103.149 53.199,140.528 " />
<polygon stroke="black" stroke-width="1" points="104.948,69.400 84.046,60.146 80.883,65.413 98.978,78.813 " />
<polygon stroke="black" stroke-width="1" points="40.039,101.975 48.403,76.802 42.857,74.061 29.100,98.353 " />
<polygon stroke="black" stroke-width="1" points="109.066,59.071 86.056,54.398 84.046,60.146 104.948,69.400 " />
<polygon stroke="black" stroke-width="1" points="51.154,103.149 54.324,78.048 48.403,76.802 40.039,101.975 " />
<polygon stroke="black" stroke-width="1" points="111.105,48.116 86.760,48.406 86.056,54.398 109.066,59.071 " />
<polygon stroke="black" stroke-width="1" points="62.126,102.060 60.341,77.875 54.324,78.048 51.154,103.149 " />
<polygon stroke="black" stroke-width="1" points="110.858,36.810 86.025,42.391 86.760,48.406 111.105,48.116 " />
<polygon stroke="black" stroke-width="1" points="72.689,98.892 66.233,76.388 60.341,77.875 62.126,102.060 " />
<polygon stroke="black" stroke-width="1" points="108.109,25.440 83.745,36.620 86.025,42.391 110.858,36.810 " />
<polygon stroke="black" stroke-width="1" points="82.554,93.823 71.775,73.713 66.233,76.388 72.689,98.892 " />
<polygon stroke="black" stroke-width="1" points="91.417,87.054 76.720,70.001 71.775,73.713 82.554,93.823 " />
<polygon stroke="black" stroke-width="1" points="98.978,78.813 80.883,65.413 76.720,70.001 91.417,87.054 " />
<polygon stroke="black" stroke-width="1" points="86.025,42.391 72.051,47.936 72.646,50.935 86.760,48.406 " />
<polygon stroke="black" stroke-width="1" points="66.233,76.388 62.569,65.372 59.525,66.052 60.341,77.875 " />
<polygon stroke="black" stroke-width="1" points="83.745,36.620 70.625,45.225 72.051,47.936 86.025,42.391 " />
<polygon stroke="black" stroke-width="1" points="71.775,73.713 65.441,64.082 62.569,65.372 66.233,76.388 " />
<polygon stroke="black" stroke-width="1" points="76.720,70.001 67.965,62.128 65.441,64.082 71.775,73.713 " />
<polygon stroke="black" stroke-width="1" points="80.883,65.413 70.098,59.758 67.965,62.128 76.720,70.001 " />
<polygon stroke="black" stroke-width="1" points="84.046,60.146 71.602,56.980 70.098,59.758 80.883,65.413 " />
<polygon stroke="black" stroke-width="1" points="48.403,76.802 53.520,65.111 50.920,63.484 42.857,74.061 " />
<polygon stroke="black" stroke-width="1" points="86.056,54.398 72.524,53.995 71.602,56.980 84.046,60.146 " />
<polygon stroke="black" stroke-width="1" points="54.324,78.048 56.465,65.929 53.520,65.111 48.403,76.802 " />
<polygon stroke="black" stroke-width="1" points="86.760,48.406 72.646,50.935 72.524,53.995 86.056,54.398 " />
<polygon stroke="black" stroke-width="1" points="60.341,77.875 59.525,66.052 56.465,65.929 54.324,78.048 " />
<polygon stroke="black" stroke-width="1" points="60.142,53.679 72.646,50.935 72.051,47.936 70.625,45.225 " />
<polygon stroke="black" stroke-width="1" points="60.142,53.679 50.920,63.484 53.520,65.111 56.465,65.929 " />
<polygon stroke="black" stroke-width="1" points="60.142,53.679 56.465,65.929 59.525,66.052 62.569,65.372 " />
<polygon stroke="black" stroke-width="1" points="72.646,50.935 60.142,53.679 71.602,56.980 72.524,53.995 " />
<polygon stroke="black" stroke-width="1" points="67.965,62.128 70.098,59.758 71.602,56.980 60.142,53.679 " />
<polygon stroke="black" stroke-width="1" points="62.569,65.372 65.441,64.082 67.965,62.128 60.142,53.679 " />
<polygon stroke="black" stroke-width="1" points="1018.314,492.739 1019.584,266.031 989.995,269.828 962.352,281.167 938.621,299.235 920.330,322.823 908.814,350.240 904.736,379.646 908.480,409.016 919.713,436.386 937.780,459.826 961.303,477.795 988.810,489.008 " />
<polygon stroke="black" stroke-width="1" points="253.010,192.068 220.655,206.563 233.681,233.341 264.597,219.752 " />
<polygon stroke="black" stroke-width="1" points="44.450,369.709 31.068,401.368 59.869,410.663 72.286,381.580 " />
<polygon stroke="black" stroke-width="1" points="220.655,206.563 189.301,222.942 204.914,248.157 233.681,233.341 " />
<polygon stroke="black" stroke-width="1" points="31.068,401.368 21.127,434.178 50.631,440.928 59.869,410.663 " />
<polygon stroke="black" stroke-width="1" points="189.301,222.942 159.300,241.474 177.458,264.914 204.914,248.157 " />
<polygon stroke="black" stroke-width="1" points="21.127,434.178 14.499,467.780 44.413,472.063 50.631,440.928 " />
<polygon stroke="black" stroke-width="1" points="159.300,241.474 131.051,262.345 151.595,283.762 177.458,264.914 " />
<polygon stroke="black" stroke-width="1" points="14.499,467.780 10.962,501.838 41.224,503.648 44.413,472.063 " />
<polygon stroke="black" stroke-width="1" points="131.051,262.345 104.964,285.620 128.118,304.831 151.595,283.762 " />
<polygon stroke="black" stroke-width="1" points="104.964,285.620 81.591,311.445 106.612,328.338 128.118,304.831 " />
<polygon stroke="black" stroke-width="1" points="81.591,311.445 61.327,339.592 87.938,353.996 106.612,328.338 " />
<polygon stroke="black" stroke-width="1" points="61.327,339.592 44.450,369.709 72.286,381.580 87.938,353.996 " />
<polygon stroke="black" stroke-width="1" points="106.612,328.338 87.938,353.996 132.919,379.841 148.967,357.925 " />
<polygon stroke="black" stroke-width="1" points="87.938,353.996 72.286,381.580 119.231,403.509 132.919,379.841 " />
<polygon stroke="black" stroke-width="1" points="264.597,219.752 233.681,233.341 255.162,278.796 283.624,267.746 " />
<polygon stroke="black" stroke-width="1" points="72.286,381.580 59.869,410.663 108.368,428.370 119.231,403.509 " />
<polygon stroke="black" stroke-width="1" points="233.681,233.341 204.914,248.157 231.263,290.292 255.162,278.796 " />
<polygon stroke="black" stroke-width="1" points="59.869,410.663 50.631,440.928 100.236,454.309 108.368,428.370 " />
<polygon stroke="black" stroke-width="1" points="204.914,248.157 177.458,264.914 208.376,303.755 231.263,290.292 " />
<polygon stroke="black" stroke-width="1" points="50.631,440.928 44.413,472.063 94.978,480.455 100.236,454.309 " />
<polygon stroke="black" stroke-width="1" points="177.458,264.914 151.595,283.762 187.515,319.240 208.376,303.755 " />
<polygon stroke="black" stroke-width="1" points="44.413,472.063 41.224,503.648 92.859,506.527 94.978,480.455 " />
<polygon stroke="black" stroke-width="1" points="151.595,283.762 128.118,304.831 167.196,338.026 187.515,319.240 " />
<polygon stroke="black" stroke-width="1" points="128.118,304.831 106.612,328.338 148.967,357.925 167.196,338.026 " />
<polygon stroke="black" stroke-width="1" points="231.263,290.292 208.376,303.755 243.604,349.288 261.711,339.270 " />
<polygon stroke="black" stroke-width="1" points="100.236,454.309 94.978,480.455 154.797,486.858 158.592,467.255 " />
<polygon stroke="black" stroke-width="1" points="208.376,303.755 187.515,319.240 226.312,361.466 243.604,349.288 " />
<polygon stroke="black" stroke-width="1" points="94.978,480.455 92.859,506.527 154.154,506.626 154.797,486.858 " />
<polygon stroke="black" stroke-width="1" points="187.515,319.240 167.196,338.026 210.718,375.635 226.312,361.466 " />
<polygon stroke="black" stroke-width="1" points="167.196,338.026 148.967,357.925 196.789,391.470 210.718,375.635 " />
<polygon stroke="black" stroke-width="1" points="148.967,357.925 132.919,379.841 184.454,408.703 196.789,391.470 " />
<polygon stroke="black" stroke-width="1" points="132.919,379.841 119.231,403.509 173.774,427.312 184.454,408.703 " />
<polygon stroke="black" stroke-width="1" points="283.624,267.746 255.162,278.796 281.175,331.171 301.259,325.070 " />
<polygon stroke="black" stroke-width="1" points="119.231,403.509 108.368,428.370 165.040,447.199 173.774,427.312 " />
<polygon stroke="black" stroke-width="1" points="255.162,278.796 231.263,290.292 261.711,339.270 281.175,331.171 " />
<polygon stroke="black" stroke-width="1" points="108.368,428.370 100.236,454.309 158.592,467.255 165.040,447.199 " />
<polygon stroke="black" stroke-width="1" points="196.789,391.470 184.454,408.703 224.658,429.100 233.632,416.674 " />
<polygon stroke="black" stroke-width="1" points="184.454,408.703 173.774,427.312 217.267,442.445 224.658,429.100 " />
<polygon stroke="black" stroke-width="1" points="301.259,325.070 281.175,331.171 296.089,376.417 310.922,373.622 " />
<polygon stroke="black" stroke-width="1" points="173.774,427.312 165.040,447.199 211.675,456.549 217.267,442.445 " />
<polygon stroke="black" stroke-width="1" points="281.175,331.171 261.711,339.270 281.968,381.023 296.089,376.417 " />
<polygon stroke="black" stroke-width="1" points="165.040,447.199 158.592,467.255 208.099,471.159 211.675,456.549 " />
<polygon stroke="black" stroke-width="1" points="261.711,339.270 243.604,349.288 268.537,387.426 281.968,381.023 " />
<polygon stroke="black" stroke-width="1" points="158.592,467.255 154.797,486.858 206.718,486.023 208.099,471.159 " />
<polygon stroke="black" stroke-width="1" points="243.604,349.288 226.312,361.466 255.824,395.603 268.537,387.426 " />
<polygon stroke="black" stroke-width="1" points="154.797,486.858 154.154,506.626 207.940,501.191 206.718,486.023 " />
<polygon stroke="black" stroke-width="1" points="226.312,361.466 210.718,375.635 244.091,405.418 255.824,395.603 " />
<polygon stroke="black" stroke-width="1" points="210.718,375.635 196.789,391.470 233.632,416.674 244.091,405.418 " />
<polygon stroke="black" stroke-width="1" points="281.968,381.023 268.537,387.426 281.063,411.609 290.986,407.628 " />
<polygon stroke="black" stroke-width="1" points="208.099,471.159 206.718,486.023 239.119,482.430 238.935,471.498 " />
<polygon stroke="black" stroke-width="1" points="268.537,387.426 255.824,395.603 271.789,417.015 281.063,411.609 " />
<polygon stroke="black" stroke-width="1" points="206.718,486.023 207.940,501.191 241.471,493.431 239.119,482.430 " />
<polygon stroke="black" stroke-width="1" points="255.824,395.603 244.091,405.418 263.270,423.796 271.789,417.015 " />
<polygon stroke="black" stroke-width="1" points="244.091,405.418 233.632,416.674 255.684,431.766 263.270,423.796 " />
<polygon stroke="black" stroke-width="1" points="233.632,416.674 224.658,429.100 249.265,440.727 255.684,431.766 " />
<polygon stroke="black" stroke-width="1" points="224.658,429.100 217.267,442.445 244.205,450.470 249.265,440.727 " />
<polygon stroke="black" stroke-width="1" points="310.922,373.622 296.089,376.417 301.529,405.276 312.728,404.724 " />
<polygon stroke="black" stroke-width="1" points="217.267,442.445 211.675,456.549 240.697,460.790 244.205,450.470 " />
<polygon stroke="black" stroke-width="1" points="296.089,376.417 281.968,381.023 290.986,407.628 301.529,405.276 " />
<polygon stroke="black" stroke-width="1" points="211.675,456.549 208.099,471.159 238.935,471.498 240.697,460.790 " />
<polygon stroke="black" stroke-width="1" points="255.684,431.766 249.265,440.727 267.039,448.951 271.191,442.967 " />
<polygon stroke="black" stroke-width="1" points="249.265,440.727 244.205,450.470 263.925,455.503 267.039,448.951 " />
<polygon stroke="black" stroke-width="1" points="312.728,404.724 301.529,405.276 302.272,427.262 309.710,428.099 " />
<polygon stroke="black" stroke-width="1" points="244.205,450.470 240.697,460.790 262.008,462.448 263.925,455.503 " />
<polygon stroke="black" stroke-width="1" points="301.529,405.276 290.986,407.628 295.107,427.987 302.272,427.262 " />
<polygon stroke="black" stroke-width="1" points="240.697,460.790 238.935,471.498 261.450,469.599 262.008,462.448 " />
<polygon stroke="black" stroke-width="1" points="290.986,407.628 281.063,411.609 288.311,430.081 295.107,427.987 " />
<polygon stroke="black" stroke-width="1" points="238.935,471.498 239.119,482.430 262.409,476.770 261.450,469.599 " />
<polygon stroke="black" stroke-width="1" points="281.063,411.609 271.789,417.015 281.984,433.378 288.311,430.081 " />
<polygon stroke="black" stroke-width="1" points="239.119,482.430 241.471,493.431 265.046,483.756 262.409,476.770 " />
<polygon stroke="black" stroke-width="1" points="271.789,417.015 263.270,423.796 276.222,437.727 281.984,433.378 " />
<polygon stroke="black" stroke-width="1" points="263.270,423.796 255.684,431.766 271.191,442.967 276.222,437.727 " />
<polygon stroke="black" stroke-width="1" points="261.450,469.599 262.409,476.770 277.322,470.682 276.239,466.398 " />
<polygon stroke="black" stroke-width="1" points="288.311,430.081 281.984,433.378 288.136,443.935 292.150,442.099 " />
<polygon stroke="black" stroke-width="1" points="262.409,476.770 265.046,483.756 279.493,474.629 277.322,470.682 " />
<polygon stroke="black" stroke-width="1" points="281.984,433.378 276.222,437.727 284.532,446.550 288.136,443.935 " />
<polygon stroke="black" stroke-width="1" points="276.222,437.727 271.191,442.967 281.413,449.791 284.532,446.550 " />
<polygon stroke="black" stroke-width="1" points="271.191,442.967 267.039,448.951 278.920,453.556 281.413,449.791 " />
<polygon stroke="black" stroke-width="1" points="267.039,448.951 263.925,455.503 277.151,457.673 278.920,453.556 " />
<polygon stroke="black" stroke-width="1" points="309.710,428.099 302.272,427.262 300.810,441.167 305.187,442.313 " />
<polygon stroke="black" stroke-width="1" points="263.925,455.503 262.008,462.448 276.214,462.007 277.151,457.673 " />
<polygon stroke="black" stroke-width="1" points="302.272,427.262 295.107,427.987 296.402,441.127 300.810,441.167 " />
<polygon stroke="black" stroke-width="1" points="262.008,462.448 261.450,469.599 276.239,466.398 276.214,462.007 " />
<polygon stroke="black" stroke-width="1" points="295.107,427.987 288.311,430.081 292.150,442.099 296.402,441.127 " />
<polygon stroke="black" stroke-width="1" points="300.810,441.167 296.402,441.127 296.274,450.896 300.387,451.938 305.187,442.313 " />
<polygon stroke="black" stroke-width="1" points="276.214,462.007 276.239,466.398 286.474,463.255 286.695,458.921 277.151,457.673 " />
<polygon stroke="black" stroke-width="1" points="292.150,442.099 288.136,443.935 292.108,452.028 296.274,450.896 296.402,441.127 " />
<polygon stroke="black" stroke-width="1" points="277.322,470.682 279.493,474.629 288.489,466.939 286.474,463.255 276.239,466.398 " />
<polygon stroke="black" stroke-width="1" points="284.532,446.550 281.413,449.791 288.697,454.910 292.108,452.028 288.136,443.935 " />
<polygon stroke="black" stroke-width="1" points="286.695,458.921 295.615,459.060 292.108,452.028 288.697,454.910 " />
<polygon stroke="black" stroke-width="1" points="295.615,459.060 286.695,458.921 286.474,463.255 288.489,466.939 " />
<polygon stroke="black" stroke-width="1" points="300.387,451.938 296.274,450.896 292.108,452.028 295.615,459.060 " />
<polygon stroke="black" stroke-width="1" points="278.920,453.556 277.151,457.673 286.695,458.921 288.697,454.910 281.413,449.791 " />
<polygon stroke="black" stroke-width="1" points="1018.314,492.739 988.810,489.008 985.215,502.966 1018.425,507.168 " />
<polygon stroke="black" stroke-width="1" points="988.810,489.008 961.303,477.795 954.277,490.307 985.215,502.966 " />
<polygon stroke="black" stroke-width="1" points="961.303,477.795 937.780,459.826 927.666,470.084 954.277,490.307 " />
<polygon stroke="black" stroke-width="1" points="937.780,459.826 919.713,436.386 907.347,443.624 927.666,470.084 " />
<polygon stroke="black" stroke-width="1" points="919.713,436.386 908.480,409.016 894.617,412.774 907.347,443.624 " />
<polygon stroke="black" stroke-width="1" points="908.480,409.016 904.736,379.646 890.349,379.657 894.617,412.774 " />
<polygon stroke="black" stroke-width="1" points="904.736,379.646 908.814,350.240 894.856,346.523 890.349,379.657 " />
<polygon stroke="black" stroke-width="1" points="908.814,350.240 920.330,322.823 907.840,315.602 894.856,346.523 " />
<polygon stroke="black" stroke-width="1" points="920.330,322.823 938.621,299.235 928.354,289.036 907.840,315.602 " />
<polygon stroke="black" stroke-width="1" points="938.621,299.235 962.352,281.167 955.115,268.637 928.354,289.036 " />
<polygon stroke="black" stroke-width="1" points="962.352,281.167 989.995,269.828 986.217,255.850 955.115,268.637 " />
<polygon stroke="black" stroke-width="1" points="989.995,269.828 1019.584,266.031 1019.581,251.537 986.217,255.850 " />
<polygon stroke="black" stroke-width="1" points="1018.314,492.739 1019.584,266.031 989.995,269.828 962.352,281.167 938.621,299.235 920.330,322.823 908.814,350.240 904.736,379.646 908.480,409.016 919.713,436.386 937.780,459.826 961.303,477.795 988.810,489.008 " />
<polygon stroke="black" stroke-width="1" points="807.525,458.149 829.722,431.399 802.691,418.332 783.925,440.535 " />
<polygon stroke="black" stroke-width="1" points="576.138,480.870 609.067,495.800 618.015,469.034 589.601,455.580 " />
<polygon stroke="black" stroke-width="1" points="829.722,431.399 846.039,401.033 816.632,392.746 802.691,418.332 " />
<polygon stroke="black" stroke-width="1" points="609.067,495.800 643.718,505.470 647.342,477.719 618.015,469.034 " />
<polygon stroke="black" stroke-width="1" points="846.039,401.033 856.046,368.358 825.270,364.801 816.632,392.746 " />
<polygon stroke="black" stroke-width="1" points="643.718,505.470 679.331,509.029 677.152,481.162 647.342,477.719 " />
<polygon stroke="black" stroke-width="1" points="856.046,368.358 859.680,334.662 828.411,335.566 825.270,364.801 " />
<polygon stroke="black" stroke-width="1" points="679.331,509.029 714.821,505.994 706.674,479.096 677.152,481.162 " />
<polygon stroke="black" stroke-width="1" points="859.680,334.662 857.234,301.093 826.113,306.038 828.411,335.566 " />
<polygon stroke="black" stroke-width="1" points="714.821,505.994 748.902,496.256 734.975,471.470 706.674,479.096 " />
<polygon stroke="black" stroke-width="1" points="748.902,496.256 780.227,480.090 761.055,458.472 734.975,471.470 " />
<polygon stroke="black" stroke-width="1" points="780.227,480.090 807.525,458.149 783.925,440.535 761.055,458.472 " />
<polygon stroke="black" stroke-width="1" points="734.975,471.470 761.055,458.472 736.807,430.576 717.363,439.904 " />
<polygon stroke="black" stroke-width="1" points="761.055,458.472 783.925,440.535 753.906,417.380 736.807,430.576 " />
<polygon stroke="black" stroke-width="1" points="783.925,440.535 802.691,418.332 767.971,400.754 753.906,417.380 " />
<polygon stroke="black" stroke-width="1" points="589.601,455.580 618.015,469.034 630.062,435.024 608.709,423.274 " />
<polygon stroke="black" stroke-width="1" points="802.691,418.332 816.632,392.746 778.399,381.296 767.971,400.754 " />
<polygon stroke="black" stroke-width="1" points="618.015,469.034 647.342,477.719 652.050,442.629 630.062,435.024 " />
<polygon stroke="black" stroke-width="1" points="816.632,392.746 825.270,364.801 784.730,359.736 778.399,381.296 " />
<polygon stroke="black" stroke-width="1" points="647.342,477.719 677.152,481.162 674.309,446.004 652.050,442.629 " />
<polygon stroke="black" stroke-width="1" points="825.270,364.801 828.411,335.566 786.678,336.878 784.730,359.736 " />
<polygon stroke="black" stroke-width="1" points="677.152,481.162 706.674,479.096 696.295,445.090 674.309,446.004 " />
<polygon stroke="black" stroke-width="1" points="828.411,335.566 826.113,306.038 784.134,313.560 786.678,336.878 " />
<polygon stroke="black" stroke-width="1" points="706.674,479.096 734.975,471.470 717.363,439.904 696.295,445.090 " />
<polygon stroke="black" stroke-width="1" points="778.399,381.296 784.730,359.736 747.351,354.225 743.413,369.013 " />
<polygon stroke="black" stroke-width="1" points="652.050,442.629 674.309,446.004 672.606,412.823 657.672,409.949 " />
<polygon stroke="black" stroke-width="1" points="784.730,359.736 786.678,336.878 748.028,338.578 747.351,354.225 " />
<polygon stroke="black" stroke-width="1" points="674.309,446.004 696.295,445.090 687.540,412.546 672.606,412.823 " />
<polygon stroke="black" stroke-width="1" points="786.678,336.878 784.134,313.560 745.237,322.667 748.028,338.578 " />
<polygon stroke="black" stroke-width="1" points="696.295,445.090 717.363,439.904 701.945,409.179 687.540,412.546 " />
<polygon stroke="black" stroke-width="1" points="717.363,439.904 736.807,430.576 715.269,402.855 701.945,409.179 " />
<polygon stroke="black" stroke-width="1" points="736.807,430.576 753.906,417.380 726.958,393.808 715.269,402.855 " />
<polygon stroke="black" stroke-width="1" points="753.906,417.380 767.971,400.754 736.492,382.380 726.958,393.808 " />
<polygon stroke="black" stroke-width="1" points="608.709,423.274 630.062,435.024 643.215,403.904 629.691,394.660 " />
<polygon stroke="black" stroke-width="1" points="767.971,400.754 778.399,381.296 743.413,369.013 736.492,382.380 " />
<polygon stroke="black" stroke-width="1" points="630.062,435.024 652.050,442.629 657.672,409.949 643.215,403.904 " />
<polygon stroke="black" stroke-width="1" points="715.269,402.855 726.958,393.808 701.222,371.254 695.230,375.983 " />
<polygon stroke="black" stroke-width="1" points="726.958,393.808 736.492,382.380 706.025,365.312 701.222,371.254 " />
<polygon stroke="black" stroke-width="1" points="629.691,394.660 643.215,403.904 658.979,375.805 652.951,370.674 " />
<polygon stroke="black" stroke-width="1" points="736.492,382.380 743.413,369.013 709.370,358.430 706.025,365.312 " />
<polygon stroke="black" stroke-width="1" points="643.215,403.904 657.672,409.949 665.896,379.266 658.979,375.805 " />
<polygon stroke="black" stroke-width="1" points="743.413,369.013 747.351,354.225 711.039,350.923 709.370,358.430 " />
<polygon stroke="black" stroke-width="1" points="657.672,409.949 672.606,412.823 673.327,380.991 665.896,379.266 " />
<polygon stroke="black" stroke-width="1" points="747.351,354.225 748.028,338.578 710.873,343.139 711.039,350.923 " />
<polygon stroke="black" stroke-width="1" points="672.606,412.823 687.540,412.546 680.940,380.984 673.327,380.991 " />
<polygon stroke="black" stroke-width="1" points="748.028,338.578 745.237,322.667 708.770,335.462 710.873,343.139 " />
<polygon stroke="black" stroke-width="1" points="687.540,412.546 701.945,409.179 688.357,379.280 680.940,380.984 " />
<polygon stroke="black" stroke-width="1" points="701.945,409.179 715.269,402.855 695.230,375.983 688.357,379.280 " />
<polygon stroke="black" stroke-width="1" points="709.370,358.430 711.039,350.923 694.239,350.738 693.576,354.576 " />
<polygon stroke="black" stroke-width="1" points="665.896,379.266 673.327,380.991 675.373,366.089 671.632,365.045 " />
<polygon stroke="black" stroke-width="1" points="711.039,350.923 710.873,343.139 693.913,346.833 694.239,350.738 " />
<polygon stroke="black" stroke-width="1" points="673.327,380.991 680.940,380.984 679.258,366.184 675.373,366.089 " />
<polygon stroke="black" stroke-width="1" points="710.873,343.139 708.770,335.462 692.570,343.094 693.913,346.833 " />
<polygon stroke="black" stroke-width="1" points="680.940,380.984 688.357,379.280 683.063,365.360 679.258,366.184 " />
<polygon stroke="black" stroke-width="1" points="688.357,379.280 695.230,375.983 686.580,363.674 683.063,365.360 " />
<polygon stroke="black" stroke-width="1" points="695.230,375.983 701.222,371.254 689.616,361.222 686.580,363.674 " />
<polygon stroke="black" stroke-width="1" points="701.222,371.254 706.025,365.312 691.997,358.135 689.616,361.222 " />
<polygon stroke="black" stroke-width="1" points="652.951,370.674 658.979,375.805 668.246,363.088 665.430,360.285 " />
<polygon stroke="black" stroke-width="1" points="706.025,365.312 709.370,358.430 693.576,354.576 691.997,358.135 " />
<polygon stroke="black" stroke-width="1" points="658.979,375.805 665.896,379.266 671.632,365.045 668.246,363.088 " />
<polygon stroke="black" stroke-width="1" points="686.580,363.674 689.616,361.222 681.988,354.863 680.932,355.732 " />
<polygon stroke="black" stroke-width="1" points="689.616,361.222 691.997,358.135 682.801,353.768 681.988,354.863 " />
<polygon stroke="black" stroke-width="1" points="665.430,360.285 668.246,363.088 674.581,355.408 673.672,354.407 " />
<polygon stroke="black" stroke-width="1" points="691.997,358.135 693.576,354.576 683.316,352.514 682.801,353.768 " />
<polygon stroke="black" stroke-width="1" points="668.246,363.088 671.632,365.045 675.717,356.130 674.581,355.408 " />
<polygon stroke="black" stroke-width="1" points="693.576,354.576 694.239,350.738 683.497,351.178 683.316,352.514 " />
<polygon stroke="black" stroke-width="1" points="671.632,365.045 675.373,366.089 677.005,356.534 675.717,356.130 " />
<polygon stroke="black" stroke-width="1" points="694.239,350.738 693.913,346.833 683.327,349.844 683.497,351.178 " />
<polygon stroke="black" stroke-width="1" points="675.373,366.089 679.258,366.184 678.361,356.597 677.005,356.534 " />
<polygon stroke="black" stroke-width="1" points="693.913,346.833 692.570,343.094 682.806,348.598 683.327,349.844 " />
<polygon stroke="black" stroke-width="1" points="679.258,366.184 683.063,365.360 679.697,356.322 678.361,356.597 " />
<polygon stroke="black" stroke-width="1" points="683.063,365.360 686.580,363.674 680.932,355.732 679.697,356.322 " />
<polygon stroke="black" stroke-width="1" points="683.497,351.178 683.327,349.844 678.103,351.482 " />
<polygon stroke="black" stroke-width="1" points="678.361,356.597 679.697,356.322 678.103,351.482 " />
<polygon stroke="black" stroke-width="1" points="683.327,349.844 682.806,348.598 678.103,351.482 " />
<polygon stroke="black" stroke-width="1" points="678.103,351.482 680.932,355.732 681.988,354.863 " />
<polygon stroke="black" stroke-width="1" points="681.988,354.863 682.801,353.768 678.103,351.482 " />
<polygon stroke="black" stroke-width="1" points="682.801,353.768 683.316,352.514 678.103,351.482 " />
<polygon stroke="black" stroke-width="1" points="683.316,352.514 683.497,351.178 678.103,351.482 " />
<polygon stroke="black" stroke-width="1" points="679.697,356.322 680.932,355.732 678.103,351.482 " />
<polygon stroke="black" stroke-width="1" points="678.103,351.482 673.672,354.407 674.581,355.408 " />
<polygon stroke="black" stroke-width="1" points="674.581,355.408 675.717,356.130 678.103,351.482 " />
<polygon stroke="black" stroke-width="1" points="675.717,356.130 677.005,356.534 678.103,351.482 " />
<polygon stroke="black" stroke-width="1" points="677.005,356.534 678.361,356.597 678.103,351.482 " />
<polygon stroke="black" stroke-width="1" points="1018.314,492.739 988.810,489.008 985.215,502.966 1018.425,507.168 " />
<polygon stroke="black" stroke-width="1" points="988.810,489.008 961.303,477.795 954.277,490.307 985.215,502.966 " />
<polygon stroke="black" stroke-width="1" points="961.303,477.795 937.780,459.826 927.666,470.084 954.277,490.307 " />
<polygon stroke="black" stroke-width="1" points="937.780,459.826 919.713,436.386 907.347,443.624 927.666,470.084 " />
<polygon stroke="black" stroke-width="1" points="919.713,436.386 908.480,409.016 894.617,412.774 907.347,443.624 " />
<polygon stroke="black" stroke-width="1" points="908.480,409.016 904.736,379.646 890.349,379.657 894.617,412.774 " />
<polygon stroke="black" stroke-width="1" points="904.736,379.646 908.814,350.240 894.856,346.523 890.349,379.657 " />
<polygon stroke="black" stroke-width="1" points="908.814,350.240 920.330,322.823 907.840,315.602 894.856,346.523 " />
<polygon stroke="black" stroke-width="1" points="920.330,322.823 938.621,299.235 928.354,289.036 907.840,315.602 " />
<polygon stroke="black" stroke-width="1" points="938.621,299.235 962.352,281.167 955.115,268.637 928.354,289.036 " />
<polygon stroke="black" stroke-width="1" points="962.352,281.167 989.995,269.828 986.217,255.850 955.115,268.637 " />
<polygon stroke="black" stroke-width="1" points="989.995,269.828 1019.584,266.031 1019.581,251.537 986.217,255.850 " />
<polygon stroke="black" stroke-width="1" points="1018.314,492.739 1019.584,266.031 989.995,269.828 962.352,281.167 938.621,299.235 920.330,322.823 908.814,350.240 904.736,379.646 908.480,409.016 919.713,436.386 937.780,459.826 961.303,477.795 988.810,489.008 " />
<polygon stroke="black" stroke-width="1" points="582.204,306.456 547.714,304.252 549.311,331.177 579.204,333.177 " />
<polygon stroke="black" stroke-width="1" points="365.632,436.169 356.702,469.115 383.341,474.341 391.002,445.537 " />
<polygon stroke="black" stroke-width="1" points="547.714,304.252 513.397,307.843 519.590,334.208 549.311,331.177 " />
<polygon stroke="black" stroke-width="1" points="356.702,469.115 352.846,503.102 380.198,504.325 383.341,474.341 " />
<polygon stroke="black" stroke-width="1" points="513.397,307.843 480.319,317.308 490.907,342.313 519.590,334.208 " />
<polygon stroke="black" stroke-width="1" points="480.319,317.308 449.558,332.407 464.161,355.299 490.907,342.313 " />
<polygon stroke="black" stroke-width="1" points="449.558,332.407 422.095,352.607 440.188,372.733 464.161,355.299 " />
<polygon stroke="black" stroke-width="1" points="422.095,352.607 398.711,377.123 419.662,393.988 440.188,372.733 " />
<polygon stroke="black" stroke-width="1" points="648.281,326.556 615.951,314.093 608.561,339.970 636.925,351.196 " />
<polygon stroke="black" stroke-width="1" points="398.711,377.123 379.724,405.186 403.185,418.520 419.662,393.988 " />
<polygon stroke="black" stroke-width="1" points="615.951,314.093 582.204,306.456 579.204,333.177 608.561,339.970 " />
<polygon stroke="black" stroke-width="1" points="379.724,405.186 365.632,436.169 391.002,445.537 403.185,418.520 " />
<polygon stroke="black" stroke-width="1" points="636.925,351.196 608.561,339.970 594.107,388.825 613.526,397.593 " />
<polygon stroke="black" stroke-width="1" points="419.662,393.988 403.185,418.520 447.833,444.221 459.617,426.682 " />
<polygon stroke="black" stroke-width="1" points="608.561,339.970 579.204,333.177 573.720,383.548 594.107,388.825 " />
<polygon stroke="black" stroke-width="1" points="403.185,418.520 391.002,445.537 439.370,463.419 447.833,444.221 " />
<polygon stroke="black" stroke-width="1" points="579.204,333.177 549.311,331.177 552.753,381.888 573.720,383.548 " />
<polygon stroke="black" stroke-width="1" points="391.002,445.537 383.341,474.341 434.417,483.803 439.370,463.419 " />
<polygon stroke="black" stroke-width="1" points="549.311,331.177 519.590,334.208 531.667,383.933 552.753,381.888 " />
<polygon stroke="black" stroke-width="1" points="383.341,474.341 380.198,504.325 433.081,504.933 434.417,483.803 " />
<polygon stroke="black" stroke-width="1" points="519.590,334.208 490.907,342.313 511.150,389.670 531.667,383.933 " />
<polygon stroke="black" stroke-width="1" points="490.907,342.313 464.161,355.299 491.870,398.939 511.150,389.670 " />
<polygon stroke="black" stroke-width="1" points="464.161,355.299 440.188,372.733 474.497,411.423 491.870,398.939 " />
<polygon stroke="black" stroke-width="1" points="440.188,372.733 419.662,393.988 459.617,426.682 474.497,411.423 " />
<polygon stroke="black" stroke-width="1" points="531.667,383.933 511.150,389.670 524.695,424.275 538.695,420.379 " />
<polygon stroke="black" stroke-width="1" points="511.150,389.670 491.870,398.939 511.463,430.635 524.695,424.275 " />
<polygon stroke="black" stroke-width="1" points="491.870,398.939 474.497,411.423 499.522,439.214 511.463,430.635 " />
<polygon stroke="black" stroke-width="1" points="474.497,411.423 459.617,426.682 489.353,449.653 499.522,439.214 " />
<polygon stroke="black" stroke-width="1" points="613.526,397.593 594.107,388.825 580.484,424.534 593.081,431.390 " />
<polygon stroke="black" stroke-width="1" points="459.617,426.682 447.833,444.221 481.363,461.593 489.353,449.653 " />
<polygon stroke="black" stroke-width="1" points="594.107,388.825 573.720,383.548 566.992,420.452 580.484,424.534 " />
<polygon stroke="black" stroke-width="1" points="447.833,444.221 439.370,463.419 475.846,474.642 481.363,461.593 " />
<polygon stroke="black" stroke-width="1" points="573.720,383.548 552.753,381.888 552.934,419.105 566.992,420.452 " />
<polygon stroke="black" stroke-width="1" points="439.370,463.419 434.417,483.803 473.014,488.456 475.846,474.642 " />
<polygon stroke="black" stroke-width="1" points="552.753,381.888 531.667,383.933 538.695,420.379 552.934,419.105 " />
<polygon stroke="black" stroke-width="1" points="434.417,483.803 433.081,504.933 473.038,502.736 473.014,488.456 " />
<polygon stroke="black" stroke-width="1" points="489.353,449.653 481.363,461.593 504.524,473.158 509.691,465.521 " />
<polygon stroke="black" stroke-width="1" points="580.484,424.534 566.992,420.452 560.133,446.360 568.333,449.226 " />
<polygon stroke="black" stroke-width="1" points="481.363,461.593 475.846,474.642 501.124,481.380 504.524,473.158 " />
<polygon stroke="black" stroke-width="1" points="566.992,420.452 552.934,419.105 551.282,445.397 560.133,446.360 " />
<polygon stroke="black" stroke-width="1" points="475.846,474.642 473.014,488.456 499.688,489.929 501.124,481.380 " />
<polygon stroke="black" stroke-width="1" points="552.934,419.105 538.695,420.379 542.100,446.273 551.282,445.397 " />
<polygon stroke="black" stroke-width="1" points="473.014,488.456 473.038,502.736 500.386,498.581 499.688,489.929 " />
<polygon stroke="black" stroke-width="1" points="538.695,420.379 524.695,424.275 532.957,448.899 542.100,446.273 " />
<polygon stroke="black" stroke-width="1" points="524.695,424.275 511.463,430.635 524.250,453.129 532.957,448.899 " />
<polygon stroke="black" stroke-width="1" points="511.463,430.635 499.522,439.214 516.372,458.753 524.250,453.129 " />
<polygon stroke="black" stroke-width="1" points="499.522,439.214 489.353,449.653 509.691,465.521 516.372,458.753 " />
<polygon stroke="black" stroke-width="1" points="593.081,431.390 580.484,424.534 568.333,449.226 575.585,454.051 " />
<polygon stroke="black" stroke-width="1" points="542.100,446.273 532.957,448.899 536.772,463.324 542.503,461.718 " />
<polygon stroke="black" stroke-width="1" points="532.957,448.899 524.250,453.129 531.303,465.964 536.772,463.324 " />
<polygon stroke="black" stroke-width="1" points="524.250,453.129 516.372,458.753 526.363,469.493 531.303,465.964 " />
<polygon stroke="black" stroke-width="1" points="516.372,458.753 509.691,465.521 522.205,473.742 526.363,469.493 " />
<polygon stroke="black" stroke-width="1" points="575.585,454.051 568.333,449.226 558.529,464.028 562.609,467.305 " />
<polygon stroke="black" stroke-width="1" points="509.691,465.521 504.524,473.158 519.053,478.522 522.205,473.742 " />
<polygon stroke="black" stroke-width="1" points="568.333,449.226 560.133,446.360 553.649,462.014 558.529,464.028 " />
<polygon stroke="black" stroke-width="1" points="504.524,473.158 501.124,481.380 517.097,483.632 519.053,478.522 " />
<polygon stroke="black" stroke-width="1" points="560.133,446.360 551.282,445.397 548.220,461.256 553.649,462.014 " />
<polygon stroke="black" stroke-width="1" points="501.124,481.380 499.688,489.929 516.491,488.868 517.097,483.632 " />
<polygon stroke="black" stroke-width="1" points="551.282,445.397 542.100,446.273 542.503,461.718 548.220,461.256 " />
<polygon stroke="black" stroke-width="1" points="499.688,489.929 500.386,498.581 517.358,494.023 516.491,488.868 " />
<polygon stroke="black" stroke-width="1" points="522.205,473.742 519.053,478.522 529.399,481.430 531.045,478.831 " />
<polygon stroke="black" stroke-width="1" points="558.529,464.028 553.649,462.014 547.984,472.679 550.487,473.871 " />
<polygon stroke="black" stroke-width="1" points="519.053,478.522 517.097,483.632 528.449,484.188 529.399,481.430 " />
<polygon stroke="black" stroke-width="1" points="553.649,462.014 548.220,461.256 545.109,472.170 547.984,472.679 " />
<polygon stroke="black" stroke-width="1" points="517.097,483.632 516.491,488.868 528.273,486.954 528.449,484.188 " />
<polygon stroke="black" stroke-width="1" points="548.220,461.256 542.503,461.718 542.033,472.351 545.109,472.170 " />
<polygon stroke="black" stroke-width="1" points="516.491,488.868 517.358,494.023 528.927,489.592 528.273,486.954 " />
<polygon stroke="black" stroke-width="1" points="542.503,461.718 536.772,463.324 538.923,473.177 542.033,472.351 " />
<polygon stroke="black" stroke-width="1" points="536.772,463.324 531.303,465.964 535.942,474.585 538.923,473.177 " />
<polygon stroke="black" stroke-width="1" points="531.303,465.964 526.363,469.493 533.270,476.511 535.942,474.585 " />
<polygon stroke="black" stroke-width="1" points="526.363,469.493 522.205,473.742 531.045,478.831 533.270,476.511 " />
<polygon stroke="black" stroke-width="1" points="562.609,467.305 558.529,464.028 550.487,473.871 552.470,475.726 " />
<polygon stroke="black" stroke-width="1" points="542.033,472.351 538.923,473.177 535.942,474.585 539.003,479.614 541.680,478.667 " />
<polygon stroke="black" stroke-width="1" points="533.270,476.511 531.045,478.831 536.881,481.491 539.003,479.614 535.942,474.585 " />
<polygon stroke="black" stroke-width="1" points="550.487,473.871 547.984,472.679 544.264,478.874 546.104,480.294 552.470,475.726 " />
<polygon stroke="black" stroke-width="1" points="529.399,481.430 528.449,484.188 535.835,483.862 536.881,481.491 531.045,478.831 " />
<polygon stroke="black" stroke-width="1" points="545.109,472.170 542.033,472.351 541.680,478.667 544.264,478.874 547.984,472.679 " />
<polygon stroke="black" stroke-width="1" points="528.273,486.954 528.927,489.592 536.171,486.169 535.835,483.862 528.449,484.188 " />
<polygon stroke="black" stroke-width="1" points="536.881,481.491 540.257,483.953 541.680,478.667 539.003,479.614 " />
<polygon stroke="black" stroke-width="1" points="541.680,478.667 540.257,483.953 546.104,480.294 544.264,478.874 " />
<polygon stroke="black" stroke-width="1" points="536.171,486.169 540.257,483.953 536.881,481.491 535.835,483.862 " />
<polygon stroke="black" stroke-width="1" points="1018.314,492.739 988.810,489.008 985.215,502.966 1018.425,507.168 " />
<polygon stroke="black" stroke-width="1" points="988.810,489.008 961.303,477.795 954.277,490.307 985.215,502.966 " />
<polygon stroke="black" stroke-width="1" points="961.303,477.795 937.780,459.826 927.666,470.084 954.277,490.307 " />
<polygon stroke="black" stroke-width="1" points="937.780,459.826 919.713,436.386 907.347,443.624 927.666,470.084 " />
<polygon stroke="black" stroke-width="1" points="919.713,436.386 908.480,409.016 894.617,412.774 907.347,443.624 " />
<polygon stroke="black" stroke-width="1" points="908.480,409.016 904.736,379.646 890.349,379.657 894.617,412.774 " />
<polygon stroke="black" stroke-width="1" points="904.736,379.646 908.814,350.240 894.856,346.523 890.349,379.657 " />
<polygon stroke="black" stroke-width="1" points="908.814,350.240 920.330,322.823 907.840,315.602 894.856,346.523 " />
<polygon stroke="black" stroke-width="1" points="920.330,322.823 938.621,299.235 928.354,289.036 907.840,315.602 " />
<polygon stroke="black" stroke-width="1" points="938.621,299.235 962.352,281.167 955.115,268.637 928.354,289.036 " />
<polygon stroke="black" stroke-width="1" points="962.352,281.167 989.995,269.828 986.217,255.850 955.115,268.637 " />
<polygon stroke="black" stroke-width="1" points="989.995,269.828 1019.584,266.031 1019.581,251.537 986.217,255.850 " />
<polygon stroke="black" stroke-width="1" points="1018.314,492.739 1019.584,266.031 989.995,269.828 962.352,281.167 938.621,299.235 920.330,322.823 908.814,350.240 904.736,379.646 908.480,409.016 919.713,436.386 937.780,459.826 961.303,477.795 988.810,489.008 " />
<polygon stroke="black" stroke-width="1" points="285.819,237.798 298.531,270.590 317.680,261.700 305.908,231.570 " />
<polygon stroke="black" stroke-width="1" points="320.833,3.773 304.556,34.312 323.470,43.369 339.184,14.301 " />
<polygon stroke="black" stroke-width="1" points="298.531,270.590 315.494,301.493 333.417,290.169 317.680,261.700 " />
<polygon stroke="black" stroke-width="1" points="304.556,34.312 291.088,66.258 310.775,73.342 323.470,43.369 " />
<polygon stroke="black" stroke-width="1" points="315.494,301.493 336.219,330.092 352.742,316.631 333.417,290.169 " />
<polygon stroke="black" stroke-width="1" points="291.088,66.258 281.195,99.593 301.563,104.338 310.775,73.342 " />
<polygon stroke="black" stroke-width="1" points="336.219,330.092 360.114,356.201 375.226,340.939 352.742,316.631 " />
<polygon stroke="black" stroke-width="1" points="281.195,99.593 275.440,133.979 296.251,136.119 301.563,104.338 " />
<polygon stroke="black" stroke-width="1" points="360.114,356.201 386.513,379.941 400.468,363.277 375.226,340.939 " />
<polygon stroke="black" stroke-width="1" points="275.440,133.979 274.208,168.890 295.135,168.264 296.251,136.119 " />
<polygon stroke="black" stroke-width="1" points="274.208,168.890 277.678,203.698 298.371,200.250 295.135,168.264 " />
<polygon stroke="black" stroke-width="1" points="277.678,203.698 285.819,237.798 305.908,231.570 298.371,200.250 " />
<polygon stroke="black" stroke-width="1" points="295.135,168.264 298.371,200.250 341.268,192.911 338.638,166.097 " />
<polygon stroke="black" stroke-width="1" points="298.371,200.250 305.908,231.570 347.786,219.082 341.268,192.911 " />
<polygon stroke="black" stroke-width="1" points="305.908,231.570 317.680,261.700 357.814,244.091 347.786,219.082 " />
<polygon stroke="black" stroke-width="1" points="339.184,14.301 323.470,43.369 363.642,62.363 378.016,38.451 " />
<polygon stroke="black" stroke-width="1" points="317.680,261.700 333.417,290.169 371.169,267.553 357.814,244.091 " />
<polygon stroke="black" stroke-width="1" points="323.470,43.369 310.775,73.342 352.357,87.182 363.642,62.363 " />
<polygon stroke="black" stroke-width="1" points="333.417,290.169 352.742,316.631 387.610,289.190 371.169,267.553 " />
<polygon stroke="black" stroke-width="1" points="310.775,73.342 301.563,104.338 344.307,112.874 352.357,87.182 " />
<polygon stroke="black" stroke-width="1" points="352.742,316.631 375.226,340.939 406.922,308.872 387.610,289.190 " />
<polygon stroke="black" stroke-width="1" points="301.563,104.338 296.251,136.119 339.678,139.283 344.307,112.874 " />
<polygon stroke="black" stroke-width="1" points="375.226,340.939 400.468,363.277 428.949,326.557 406.922,308.872 " />
<polygon stroke="black" stroke-width="1" points="296.251,136.119 295.135,168.264 338.638,166.097 339.678,139.283 " />
<polygon stroke="black" stroke-width="1" points="371.169,267.553 387.610,289.190 419.438,260.475 405.901,243.873 " />
<polygon stroke="black" stroke-width="1" points="352.357,87.182 344.307,112.874 384.751,123.280 391.762,103.169 " />
<polygon stroke="black" stroke-width="1" points="387.610,289.190 406.922,308.872 435.581,275.272 419.438,260.475 " />
<polygon stroke="black" stroke-width="1" points="344.307,112.874 339.678,139.283 380.755,143.979 384.751,123.280 " />
<polygon stroke="black" stroke-width="1" points="406.922,308.872 428.949,326.557 454.329,288.048 435.581,275.272 " />
<polygon stroke="black" stroke-width="1" points="339.678,139.283 338.638,166.097 379.820,164.960 380.755,143.979 " />
<polygon stroke="black" stroke-width="1" points="338.638,166.097 341.268,192.911 381.982,185.832 379.820,164.960 " />
<polygon stroke="black" stroke-width="1" points="341.268,192.911 347.786,219.082 387.029,206.219 381.982,185.832 " />
<polygon stroke="black" stroke-width="1" points="347.786,219.082 357.814,244.091 395.052,225.689 387.029,206.219 " />
<polygon stroke="black" stroke-width="1" points="378.016,38.451 363.642,62.363 401.777,83.861 414.870,65.527 " />
<polygon stroke="black" stroke-width="1" points="357.814,244.091 371.169,267.553 405.901,243.873 395.052,225.689 " />
<polygon stroke="black" stroke-width="1" points="363.642,62.363 352.357,87.182 391.762,103.169 401.777,83.861 " />
<polygon stroke="black" stroke-width="1" points="379.820,164.960 381.982,185.832 422.595,178.700 421.175,164.222 " />
<polygon stroke="black" stroke-width="1" points="381.982,185.832 387.029,206.219 426.213,192.799 422.595,178.700 " />
<polygon stroke="black" stroke-width="1" points="387.029,206.219 395.052,225.689 432.035,206.155 426.213,192.799 " />
<polygon stroke="black" stroke-width="1" points="414.870,65.527 401.777,83.861 438.907,109.235 449.355,97.761 " />
<polygon stroke="black" stroke-width="1" points="395.052,225.689 405.901,243.873 439.969,218.424 432.035,206.155 " />
<polygon stroke="black" stroke-width="1" points="401.777,83.861 391.762,103.169 430.918,121.910 438.907,109.235 " />
<polygon stroke="black" stroke-width="1" points="405.901,243.873 419.438,260.475 449.921,229.295 439.969,218.424 " />
<polygon stroke="black" stroke-width="1" points="391.762,103.169 384.751,123.280 425.319,135.493 430.918,121.910 " />
<polygon stroke="black" stroke-width="1" points="419.438,260.475 435.581,275.272 461.826,238.482 449.921,229.295 " />
<polygon stroke="black" stroke-width="1" points="384.751,123.280 380.755,143.979 422.075,149.702 425.319,135.493 " />
<polygon stroke="black" stroke-width="1" points="435.581,275.272 454.329,288.048 475.642,245.677 461.826,238.482 " />
<polygon stroke="black" stroke-width="1" points="380.755,143.979 379.820,164.960 421.175,164.222 422.075,149.702 " />
<polygon stroke="black" stroke-width="1" points="439.969,218.424 449.921,229.295 471.110,202.794 464.812,196.766 " />
<polygon stroke="black" stroke-width="1" points="430.918,121.910 425.319,135.493 456.026,147.271 459.856,139.459 " />
<polygon stroke="black" stroke-width="1" points="449.921,229.295 461.826,238.482 478.575,207.480 471.110,202.794 " />
<polygon stroke="black" stroke-width="1" points="425.319,135.493 422.075,149.702 453.746,155.682 456.026,147.271 " />
<polygon stroke="black" stroke-width="1" points="461.826,238.482 475.642,245.677 487.113,210.574 478.575,207.480 " />
<polygon stroke="black" stroke-width="1" points="422.075,149.702 421.175,164.222 453.013,164.415 453.746,155.682 " />
<polygon stroke="black" stroke-width="1" points="421.175,164.222 422.595,178.700 453.809,173.179 453.013,164.415 " />
<polygon stroke="black" stroke-width="1" points="422.595,178.700 426.213,192.799 456.075,181.686 453.809,173.179 " />
<polygon stroke="black" stroke-width="1" points="426.213,192.799 432.035,206.155 459.770,189.642 456.075,181.686 " />
<polygon stroke="black" stroke-width="1" points="449.355,97.761 438.907,109.235 465.238,132.505 472.174,126.673 " />
<polygon stroke="black" stroke-width="1" points="432.035,206.155 439.969,218.424 464.812,196.766 459.770,189.642 " />
<polygon stroke="black" stroke-width="1" points="438.907,109.235 430.918,121.910 459.856,139.459 465.238,132.505 " />
<polygon stroke="black" stroke-width="1" points="453.809,173.179 456.075,181.686 469.088,176.451 467.549,170.839 " />
<polygon stroke="black" stroke-width="1" points="456.075,181.686 459.770,189.642 471.621,181.648 469.088,176.451 " />
<polygon stroke="black" stroke-width="1" points="472.174,126.673 465.238,132.505 475.900,144.650 480.718,141.406 " />
<polygon stroke="black" stroke-width="1" points="459.770,189.642 464.812,196.766 475.078,186.207 471.621,181.648 " />
<polygon stroke="black" stroke-width="1" points="465.238,132.505 459.856,139.459 472.090,148.867 475.900,144.650 " />
<polygon stroke="black" stroke-width="1" points="464.812,196.766 471.110,202.794 479.373,189.915 475.078,186.207 " />
<polygon stroke="black" stroke-width="1" points="459.856,139.459 456.026,147.271 469.332,153.822 472.090,148.867 " />
<polygon stroke="black" stroke-width="1" points="471.110,202.794 478.575,207.480 484.405,192.566 479.373,189.915 " />
<polygon stroke="black" stroke-width="1" points="456.026,147.271 453.746,155.682 467.655,159.290 469.332,153.822 " />
<polygon stroke="black" stroke-width="1" points="478.575,207.480 487.113,210.574 490.052,193.958 484.405,192.566 " />
<polygon stroke="black" stroke-width="1" points="453.746,155.682 453.013,164.415 467.064,165.040 467.655,159.290 " />
<polygon stroke="black" stroke-width="1" points="453.013,164.415 453.809,173.179 467.549,170.839 467.064,165.040 " />
<polygon stroke="black" stroke-width="1" points="475.078,186.207 479.373,189.915 484.384,180.160 481.736,178.126 " />
<polygon stroke="black" stroke-width="1" points="472.090,148.867 469.332,153.822 478.361,159.118 480.147,156.297 " />
<polygon stroke="black" stroke-width="1" points="479.373,189.915 484.405,192.566 487.438,181.484 484.384,180.160 " />
<polygon stroke="black" stroke-width="1" points="469.332,153.822 467.655,159.290 477.243,162.308 478.361,159.118 " />
<polygon stroke="black" stroke-width="1" points="484.405,192.566 490.052,193.958 490.774,181.979 487.438,181.484 " />
<polygon stroke="black" stroke-width="1" points="467.655,159.290 467.064,165.040 476.815,165.706 477.243,162.308 " />
<polygon stroke="black" stroke-width="1" points="467.064,165.040 467.549,170.839 477.076,169.149 476.815,165.706 " />
<polygon stroke="black" stroke-width="1" points="467.549,170.839 469.088,176.451 478.016,172.471 477.076,169.149 " />
<polygon stroke="black" stroke-width="1" points="469.088,176.451 471.621,181.648 479.588,175.514 478.016,172.471 " />
<polygon stroke="black" stroke-width="1" points="480.718,141.406 475.900,144.650 482.556,154.005 485.516,152.393 " />
<polygon stroke="black" stroke-width="1" points="471.621,181.648 475.078,186.207 481.736,178.126 479.588,175.514 " />
<polygon stroke="black" stroke-width="1" points="475.900,144.650 472.090,148.867 480.147,156.297 482.556,154.005 " />
<polygon stroke="black" stroke-width="1" points="477.076,169.149 478.016,172.471 483.268,170.018 482.723,168.146 " />
<polygon stroke="black" stroke-width="1" points="478.016,172.471 479.588,175.514 484.185,171.716 483.268,170.018 " />
<polygon stroke="black" stroke-width="1" points="485.516,152.393 482.556,154.005 486.027,159.796 487.716,159.031 " />
<polygon stroke="black" stroke-width="1" points="479.588,175.514 481.736,178.126 485.435,173.146 484.185,171.716 " />
<polygon stroke="black" stroke-width="1" points="482.556,154.005 480.147,156.297 484.614,160.989 486.027,159.796 " />
<polygon stroke="black" stroke-width="1" points="481.736,178.126 484.384,180.160 486.964,174.215 485.435,173.146 " />
<polygon stroke="black" stroke-width="1" points="480.147,156.297 478.361,159.118 483.547,162.519 484.614,160.989 " />
<polygon stroke="black" stroke-width="1" points="484.384,180.160 487.438,181.484 488.702,174.848 486.964,174.215 " />
<polygon stroke="black" stroke-width="1" points="478.361,159.118 477.243,162.308 482.866,164.291 483.547,162.519 " />
<polygon stroke="black" stroke-width="1" points="487.438,181.484 490.774,181.979 490.552,174.985 488.702,174.848 " />
<polygon stroke="black" stroke-width="1" points="477.243,162.308 476.815,165.706 482.590,166.200 482.866,164.291 " />
<polygon stroke="black" stroke-width="1" points="476.815,165.706 477.076,169.149 482.723,168.146 482.590,166.200 " />
<polygon stroke="black" stroke-width="1" points="488.702,174.848 490.552,174.985 490.033,170.021 488.625,169.799 486.964,174.215 " />
<polygon stroke="black" stroke-width="1" points="482.590,166.200 482.723,168.146 486.890,167.406 486.964,165.858 482.866,164.291 " />
<polygon stroke="black" stroke-width="1" points="483.268,170.018 484.185,171.716 487.492,168.833 486.890,167.406 482.723,168.146 " />
<polygon stroke="black" stroke-width="1" points="486.027,159.796 484.614,160.989 487.694,164.561 488.939,163.868 487.716,159.031 " />
<polygon stroke="black" stroke-width="1" points="487.492,168.833 489.575,166.934 486.964,165.858 486.890,167.406 " />
<polygon stroke="black" stroke-width="1" points="485.435,173.146 486.964,174.215 488.625,169.799 487.492,168.833 484.185,171.716 " />
<polygon stroke="black" stroke-width="1" points="486.964,165.858 489.575,166.934 488.939,163.868 487.694,164.561 " />
<polygon stroke="black" stroke-width="1" points="483.547,162.519 482.866,164.291 486.964,165.858 487.694,164.561 484.614,160.989 " />
<polygon stroke="black" stroke-width="1" points="490.033,170.021 489.575,166.934 487.492,168.833 488.625,169.799 " />
<polygon stroke="black" stroke-width="1" points="1018.314,492.739 988.810,489.008 985.215,502.966 1018.425,507.168 " />
<polygon stroke="black" stroke-width="1" points="988.810,489.008 961.303,477.795 954.277,490.307 985.215,502.966 " />
<polygon stroke="black" stroke-width="1" points="961.303,477.795 937.780,459.826 927.666,470.084 954.277,490.307 " />
<polygon stroke="black" stroke-width="1" points="937.780,459.826 919.713,436.386 907.347,443.624 927.666,470.084 " />
<polygon stroke="black" stroke-width="1" points="919.713,436.386 908.480,409.016 894.617,412.774 907.347,443.624 " />
<polygon stroke="black" stroke-width="1" points="908.480,409.016 904.736,379.646 890.349,379.657 894.617,412.774 " />
<polygon stroke="black" stroke-width="1" points="904.736,379.646 908.814,350.240 894.856,346.523 890.349,379.657 " />
<polygon stroke="black" stroke-width="1" points="908.814,350.240 920.330,322.823 907.840,315.602 894.856,346.523 " />
<polygon stroke="black" stroke-width="1" points="920.330,322.823 938.621,299.235 928.354,289.036 907.840,315.602 " />
<polygon stroke="black" stroke-width="1" points="938.621,299.235 962.352,281.167 955.115,268.637 928.354,289.036 " />
<polygon stroke="black" stroke-width="1" points="962.352,281.167 989.995,269.828 986.217,255.850 955.115,268.637 " />
<polygon stroke="black" stroke-width="1" points="989.995,269.828 1019.584,266.031 1019.581,251.537 986.217,255.850 " />
<polygon stroke="black" stroke-width="1" points="1018.314,492.739 1019.584,266.031 989.995,269.828 962.352,281.167 938.621,299.235 920.330,322.823 908.814,350.240 904.736,379.646 908.480,409.016 919.713,436.386 937.780,459.826 961.303,477.795 988.810,489.008 " />

</svg>
