<?xml version="1.0" standalone="no"?>
<!DOCTYPE svg PUBLIC "-//W3C//DTD SVG 1.1//EN" 
  "http://www.w3.org/Graphics/SVG/1.1/DTD/svg11.dtd">
<svg width="1024" height="1024" viewBox="0 0 1024 1024"
     xmlns="http://www.w3.org/2000/svg" version="1.1">
<desc>'31DC10.blend', External_mergedObject, (Blender 2.78 (sub 0))</desc>
<polygon stroke="black" stroke-width="1" fill="rgb(204, 204, 204)" fill-opacity="0.25" points="644.580,406.727 782.959,398.232 790.828,344.329 661.811,343.446 " />
<polygon stroke="black" stroke-width="1" fill="rgb(204, 204, 204)" fill-opacity="0.25" points="1019.328,359.426 971.102,286.010 894.193,320.864 904.109,406.727 " />
<polygon stroke="black" stroke-width="1" fill="rgb(204, 204, 204)" fill-opacity="0.25" points="904.109,406.727 894.193,320.864 790.828,344.329 782.959,398.232 " />
<polygon stroke="black" stroke-width="1" fill="rgb(204, 204, 204)" fill-opacity="0.25" points="1021.370,391.507 940.263,402.575 943.990,416.374 1021.393,405.781 " />
<polygon stroke="black" stroke-width="1" fill="rgb(204, 204, 204)" fill-opacity="0.25" points="346.517,906.089 324.171,831.480 377.316,819.588 398.626,889.139 " />
<polygon stroke="black" stroke-width="1" fill="rgb(204, 204, 204)" fill-opacity="0.25" points="264.203,763.128 253.937,682.945 297.937,679.163 307.892,755.716 " />
<polygon stroke="black" stroke-width="1" fill="rgb(204, 204, 204)" fill-opacity="0.25" points="310.448,123.493 336.504,46.393 378.535,62.163 353.222,136.302 " />
<polygon stroke="black" stroke-width="1" fill="rgb(204, 204, 204)" fill-opacity="0.25" points="253.937,682.945 250.065,602.496 294.212,602.138 297.937,679.163 " />
<polygon stroke="black" stroke-width="1" fill="rgb(204, 204, 204)" fill-opacity="0.25" points="250.065,602.496 251.852,522.240 296.343,524.576 294.212,602.138 " />
<polygon stroke="black" stroke-width="1" fill="rgb(204, 204, 204)" fill-opacity="0.25" points="251.852,522.240 258.073,441.972 303.564,445.901 296.343,524.576 " />
<polygon stroke="black" stroke-width="1" fill="rgb(204, 204, 204)" fill-opacity="0.25" points="258.073,441.972 266.368,361.855 313.887,356.073 303.564,445.901 " />
<polygon stroke="black" stroke-width="1" fill="rgb(204, 204, 204)" fill-opacity="0.25" points="333.157,996.520 304.286,920.438 346.517,906.089 374.479,979.329 " />
<polygon stroke="black" stroke-width="1" fill="rgb(204, 204, 204)" fill-opacity="0.25" points="266.368,361.855 276.753,281.985 321.696,287.402 313.887,356.073 " />
<polygon stroke="black" stroke-width="1" fill="rgb(204, 204, 204)" fill-opacity="0.25" points="304.286,920.438 281.028,842.525 324.171,831.480 346.517,906.089 " />
<polygon stroke="black" stroke-width="1" fill="rgb(204, 204, 204)" fill-opacity="0.25" points="276.753,281.985 290.693,202.335 334.338,211.882 321.696,287.402 " />
<polygon stroke="black" stroke-width="1" fill="rgb(204, 204, 204)" fill-opacity="0.25" points="281.028,842.525 264.203,763.128 307.892,755.716 324.171,831.480 " />
<polygon stroke="black" stroke-width="1" fill="rgb(204, 204, 204)" fill-opacity="0.25" points="290.693,202.335 310.448,123.493 353.222,136.302 334.338,211.882 " />
<polygon stroke="black" stroke-width="1" fill="rgb(204, 204, 204)" fill-opacity="0.25" points="321.696,287.402 334.338,211.882 389.602,225.121 379.050,291.306 " />
<polygon stroke="black" stroke-width="1" fill="rgb(204, 204, 204)" fill-opacity="0.25" points="324.171,831.480 307.892,755.716 361.861,749.106 377.316,819.588 " />
<polygon stroke="black" stroke-width="1" fill="rgb(204, 204, 204)" fill-opacity="0.25" points="334.338,211.882 353.222,136.302 407.518,153.624 389.602,225.121 " />
<polygon stroke="black" stroke-width="1" fill="rgb(204, 204, 204)" fill-opacity="0.25" points="307.892,755.716 297.937,679.163 352.447,677.854 361.861,749.106 " />
<polygon stroke="black" stroke-width="1" fill="rgb(204, 204, 204)" fill-opacity="0.25" points="353.222,136.302 378.535,62.163 432.300,83.530 407.518,153.624 " />
<polygon stroke="black" stroke-width="1" fill="rgb(204, 204, 204)" fill-opacity="0.25" points="297.937,679.163 294.212,602.138 348.964,606.066 352.447,677.854 " />
<polygon stroke="black" stroke-width="1" fill="rgb(204, 204, 204)" fill-opacity="0.25" points="294.212,602.138 296.343,524.576 354.017,540.291 348.964,606.066 " />
<polygon stroke="black" stroke-width="1" fill="rgb(204, 204, 204)" fill-opacity="0.25" points="358.303,488.478 354.017,540.291 296.343,524.576 " />
<polygon stroke="black" stroke-width="1" fill="rgb(204, 204, 204)" fill-opacity="0.25" points="374.479,979.329 346.517,906.089 398.626,889.139 425.481,957.776 " />
<polygon stroke="black" stroke-width="1" fill="rgb(204, 204, 204)" fill-opacity="0.25" points="313.887,356.073 321.696,287.402 363.821,343.543 362.934,351.144 " />
<polygon stroke="black" stroke-width="1" fill="rgb(204, 204, 204)" fill-opacity="0.25" points="348.964,606.066 354.017,540.291 425.876,553.422 423.058,616.933 " />
<polygon stroke="black" stroke-width="1" fill="rgb(204, 204, 204)" fill-opacity="0.25" points="632.357,440.975 635.635,472.083 577.522,471.002 509.008,469.941 " />
<polygon stroke="black" stroke-width="1" fill="rgb(204, 204, 204)" fill-opacity="0.25" points="425.481,957.776 398.626,889.139 465.707,868.678 490.672,928.933 " />
<polygon stroke="black" stroke-width="1" fill="rgb(204, 204, 204)" fill-opacity="0.25" points="398.626,889.139 377.316,819.588 446.242,807.431 465.707,868.678 " />
<polygon stroke="black" stroke-width="1" fill="rgb(204, 204, 204)" fill-opacity="0.25" points="379.050,291.306 389.602,225.121 460.321,237.550 462.902,297.137 " />
<polygon stroke="black" stroke-width="1" fill="rgb(204, 204, 204)" fill-opacity="0.25" points="377.316,819.588 361.861,749.106 432.356,744.942 446.242,807.431 " />
<polygon stroke="black" stroke-width="1" fill="rgb(204, 204, 204)" fill-opacity="0.25" points="389.602,225.121 407.518,153.624 478.029,174.043 460.321,237.550 " />
<polygon stroke="black" stroke-width="1" fill="rgb(204, 204, 204)" fill-opacity="0.25" points="361.861,749.106 352.447,677.854 424.209,681.255 432.356,744.942 " />
<polygon stroke="black" stroke-width="1" fill="rgb(204, 204, 204)" fill-opacity="0.25" points="407.518,153.624 432.300,83.530 501.239,112.265 478.029,174.043 " />
<polygon stroke="black" stroke-width="1" fill="rgb(204, 204, 204)" fill-opacity="0.25" points="352.447,677.854 348.964,606.066 423.058,616.933 424.209,681.255 " />
<polygon stroke="black" stroke-width="1" fill="rgb(204, 204, 204)" fill-opacity="0.25" points="469.978,624.234 475.533,565.787 544.434,585.455 540.376,635.134 " />
<polygon stroke="black" stroke-width="1" fill="rgb(204, 204, 204)" fill-opacity="0.25" points="462.902,297.137 502.237,245.345 536.135,263.040 " />
<polygon stroke="black" stroke-width="1" fill="rgb(204, 204, 204)" fill-opacity="0.25" points="446.242,807.431 432.356,744.942 477.301,741.765 490.906,800.397 " />
<polygon stroke="black" stroke-width="1" fill="rgb(204, 204, 204)" fill-opacity="0.25" points="460.321,237.550 478.029,174.043 525.837,188.484 502.237,245.345 " />
<polygon stroke="black" stroke-width="1" fill="rgb(204, 204, 204)" fill-opacity="0.25" points="432.356,744.942 424.209,681.255 469.438,682.880 477.301,741.765 " />
<polygon stroke="black" stroke-width="1" fill="rgb(204, 204, 204)" fill-opacity="0.25" points="478.029,174.043 501.239,112.265 548.265,133.535 525.837,188.484 " />
<polygon stroke="black" stroke-width="1" fill="rgb(204, 204, 204)" fill-opacity="0.25" points="424.209,681.255 423.058,616.933 469.978,624.234 469.438,682.880 " />
<polygon stroke="black" stroke-width="1" fill="rgb(204, 204, 204)" fill-opacity="0.25" points="423.058,616.933 425.876,553.422 475.533,565.787 469.978,624.234 " />
<polygon stroke="black" stroke-width="1" fill="rgb(204, 204, 204)" fill-opacity="0.25" points="353.034,457.494 296.343,524.576 303.564,445.901 353.702,448.623 " />
<polygon stroke="black" stroke-width="1" fill="rgb(204, 204, 204)" fill-opacity="0.25" points="740.350,433.229 737.930,423.051 759.779,421.188 775.151,427.894 " />
<polygon stroke="black" stroke-width="1" fill="rgb(204, 204, 204)" fill-opacity="0.25" points="490.672,928.933 465.707,868.678 510.091,858.459 531.651,909.293 " />
<polygon stroke="black" stroke-width="1" fill="rgb(204, 204, 204)" fill-opacity="0.25" points="465.707,868.678 446.242,807.431 490.906,800.397 510.091,858.459 " />
<polygon stroke="black" stroke-width="1" fill="rgb(204, 204, 204)" fill-opacity="0.25" points="475.533,565.787 484.942,506.936 553.901,531.696 544.434,585.455 " />
<polygon stroke="black" stroke-width="1" fill="rgb(204, 204, 204)" fill-opacity="0.25" points="484.942,506.936 562.214,495.809 553.901,531.696 " />
<polygon stroke="black" stroke-width="1" fill="rgb(204, 204, 204)" fill-opacity="0.25" points="531.651,909.293 510.091,858.459 573.960,830.441 595.433,877.735 " />
<polygon stroke="black" stroke-width="1" fill="rgb(204, 204, 204)" fill-opacity="0.25" points="510.091,858.459 490.906,800.397 557.487,782.271 573.960,830.441 " />
<polygon stroke="black" stroke-width="1" fill="rgb(204, 204, 204)" fill-opacity="0.25" points="557.185,276.854 552.950,275.784 551.684,272.614 557.255,273.419 558.008,276.191 " />
<polygon stroke="black" stroke-width="1" fill="rgb(204, 204, 204)" fill-opacity="0.25" points="490.906,800.397 477.301,741.765 545.978,733.503 557.487,782.271 " />
<polygon stroke="black" stroke-width="1" fill="rgb(204, 204, 204)" fill-opacity="0.25" points="502.237,245.345 462.902,297.137 460.321,237.550 " />
<polygon stroke="black" stroke-width="1" fill="rgb(204, 204, 204)" fill-opacity="0.25" points="477.301,741.765 469.438,682.880 539.577,684.629 545.978,733.503 " />
<polygon stroke="black" stroke-width="1" fill="rgb(204, 204, 204)" fill-opacity="0.25" points="525.837,188.484 548.265,133.535 605.407,162.235 582.015,206.133 " />
<polygon stroke="black" stroke-width="1" fill="rgb(204, 204, 204)" fill-opacity="0.25" points="469.438,682.880 469.978,624.234 540.376,635.134 539.577,684.629 " />
<polygon stroke="black" stroke-width="1" fill="rgb(204, 204, 204)" fill-opacity="0.25" points="557.487,782.271 545.978,733.503 583.586,731.900 593.991,775.503 " />
<polygon stroke="black" stroke-width="1" fill="rgb(204, 204, 204)" fill-opacity="0.25" points="545.978,733.503 539.577,684.629 578.572,687.039 583.586,731.900 " />
<polygon stroke="black" stroke-width="1" fill="rgb(204, 204, 204)" fill-opacity="0.25" points="536.135,263.040 551.684,272.614 463.346,323.048 462.902,297.137 " />
<polygon stroke="black" stroke-width="1" fill="rgb(204, 204, 204)" fill-opacity="0.25" points="539.577,684.629 540.376,635.134 579.361,640.876 578.572,687.039 " />
<polygon stroke="black" stroke-width="1" fill="rgb(204, 204, 204)" fill-opacity="0.25" points="540.376,635.134 544.434,585.455 583.767,595.223 579.361,640.876 " />
<polygon stroke="black" stroke-width="1" fill="rgb(204, 204, 204)" fill-opacity="0.25" points="544.434,585.455 553.901,531.696 597.867,550.405 583.767,595.223 " />
<polygon stroke="black" stroke-width="1" fill="rgb(204, 204, 204)" fill-opacity="0.25" points="553.901,531.696 562.214,495.809 615.776,520.044 597.867,550.405 " />
<polygon stroke="black" stroke-width="1" fill="rgb(204, 204, 204)" fill-opacity="0.25" points="595.433,877.735 573.960,830.441 609.078,818.387 628.798,860.273 " />
<polygon stroke="black" stroke-width="1" fill="rgb(204, 204, 204)" fill-opacity="0.25" points="573.960,830.441 557.487,782.271 593.991,775.503 609.078,818.387 " />
<polygon stroke="black" stroke-width="1" fill="rgb(204, 204, 204)" fill-opacity="0.25" points="639.791,725.500 635.587,687.532 677.629,688.751 681.067,721.166 " />
<polygon stroke="black" stroke-width="1" fill="rgb(204, 204, 204)" fill-opacity="0.25" points="583.767,595.223 597.867,550.405 651.415,573.356 641.113,610.900 " />
<polygon stroke="black" stroke-width="1" fill="rgb(204, 204, 204)" fill-opacity="0.25" points="597.867,550.405 615.776,520.044 664.365,542.532 651.415,573.356 " />
<polygon stroke="black" stroke-width="1" fill="rgb(204, 204, 204)" fill-opacity="0.25" points="628.798,860.273 609.078,818.387 661.131,798.574 678.127,833.057 " />
<polygon stroke="black" stroke-width="1" fill="rgb(204, 204, 204)" fill-opacity="0.25" points="722.850,534.430 680.806,518.453 695.899,500.798 " />
<polygon stroke="black" stroke-width="1" fill="rgb(204, 204, 204)" fill-opacity="0.25" points="609.078,818.387 593.991,775.503 648.353,762.632 661.131,798.574 " />
<polygon stroke="black" stroke-width="1" fill="rgb(204, 204, 204)" fill-opacity="0.25" points="680.806,518.453 637.956,501.346 695.899,500.798 " />
<polygon stroke="black" stroke-width="1" fill="rgb(204, 204, 204)" fill-opacity="0.25" points="593.991,775.503 583.586,731.900 639.791,725.500 648.353,762.632 " />
<polygon stroke="black" stroke-width="1" fill="rgb(204, 204, 204)" fill-opacity="0.25" points="583.586,731.900 578.572,687.039 635.587,687.532 639.791,725.500 " />
<polygon stroke="black" stroke-width="1" fill="rgb(204, 204, 204)" fill-opacity="0.25" points="578.572,687.039 579.361,640.876 635.944,649.169 635.587,687.532 " />
<polygon stroke="black" stroke-width="1" fill="rgb(204, 204, 204)" fill-opacity="0.25" points="579.361,640.876 583.767,595.223 641.113,610.900 635.944,649.169 " />
<polygon stroke="black" stroke-width="1" fill="rgb(204, 204, 204)" fill-opacity="0.25" points="697.694,891.461 664.805,895.658 668.366,909.470 697.560,905.737 " />
<polygon stroke="black" stroke-width="1" fill="rgb(204, 204, 204)" fill-opacity="0.25" points="363.650,444.571 359.012,449.074 353.702,448.623 362.934,351.144 368.301,350.629 372.048,354.774 " />
<polygon stroke="black" stroke-width="1" fill="rgb(204, 204, 204)" fill-opacity="0.25" points="635.587,687.532 635.944,649.169 678.120,656.069 677.629,688.751 " />
<polygon stroke="black" stroke-width="1" fill="rgb(204, 204, 204)" fill-opacity="0.25" points="635.944,649.169 641.113,610.900 682.729,623.624 678.120,656.069 " />
<polygon stroke="black" stroke-width="1" fill="rgb(204, 204, 204)" fill-opacity="0.25" points="641.113,610.900 651.415,573.356 691.657,592.035 682.729,623.624 " />
<polygon stroke="black" stroke-width="1" fill="rgb(204, 204, 204)" fill-opacity="0.25" points="651.415,573.356 664.365,542.532 705.055,562.034 691.657,592.035 " />
<polygon stroke="black" stroke-width="1" fill="rgb(204, 204, 204)" fill-opacity="0.25" points="678.127,833.057 661.131,798.574 699.098,783.410 713.553,812.305 " />
<polygon stroke="black" stroke-width="1" fill="rgb(204, 204, 204)" fill-opacity="0.25" points="664.365,542.532 680.806,518.453 722.850,534.430 705.055,562.034 " />
<polygon stroke="black" stroke-width="1" fill="rgb(204, 204, 204)" fill-opacity="0.25" points="661.131,798.574 648.353,762.632 688.265,752.863 699.098,783.410 " />
<polygon stroke="black" stroke-width="1" fill="rgb(204, 204, 204)" fill-opacity="0.25" points="695.899,500.798 744.683,509.943 722.850,534.430 " />
<polygon stroke="black" stroke-width="1" fill="rgb(204, 204, 204)" fill-opacity="0.25" points="648.353,762.632 639.791,725.500 681.067,721.166 688.265,752.863 " />
<polygon stroke="black" stroke-width="1" fill="rgb(204, 204, 204)" fill-opacity="0.25" points="716.028,474.424 754.949,459.998 770.100,489.083 744.683,509.943 " />
<polygon stroke="black" stroke-width="1" fill="rgb(204, 204, 204)" fill-opacity="0.25" points="632.357,440.975 509.008,469.941 505.898,462.786 509.189,457.457 617.024,433.691 623.330,436.783 " />
<polygon stroke="black" stroke-width="1" fill="rgb(204, 204, 204)" fill-opacity="0.25" points="744.683,509.943 695.899,500.798 716.028,474.424 " />
<polygon stroke="black" stroke-width="1" fill="rgb(204, 204, 204)" fill-opacity="0.25" points="754.949,459.998 716.028,474.424 691.994,437.329 740.350,433.229 " />
<polygon stroke="black" stroke-width="1" fill="rgb(204, 204, 204)" fill-opacity="0.25" points="689.632,424.229 690.165,427.213 638.389,430.867 641.174,427.756 " />
<polygon stroke="black" stroke-width="1" fill="rgb(204, 204, 204)" fill-opacity="0.25" points="582.015,206.133 536.135,263.040 502.237,245.345 525.837,188.484 " />
<polygon stroke="black" stroke-width="1" fill="rgb(204, 204, 204)" fill-opacity="0.25" points="615.776,520.044 637.956,501.346 680.806,518.453 664.365,542.532 " />
<polygon stroke="black" stroke-width="1" fill="rgb(204, 204, 204)" fill-opacity="0.25" points="662.213,883.279 726.975,840.318 724.842,834.745 656.484,880.436 " />
<polygon stroke="black" stroke-width="1" fill="rgb(204, 204, 204)" fill-opacity="0.25" points="695.899,500.798 670.732,474.509 716.028,474.424 " />
<polygon stroke="black" stroke-width="1" fill="rgb(204, 204, 204)" fill-opacity="0.25" points="670.732,474.509 635.635,472.083 632.357,440.975 " />
<polygon stroke="black" stroke-width="1" fill="rgb(204, 204, 204)" fill-opacity="0.25" points="562.214,495.809 509.008,469.941 577.522,471.002 " />
<polygon stroke="black" stroke-width="1" fill="rgb(204, 204, 204)" fill-opacity="0.25" points="695.899,500.798 637.956,501.346 635.635,472.083 670.732,474.509 " />
<polygon stroke="black" stroke-width="1" fill="rgb(204, 204, 204)" fill-opacity="0.25" points="754.949,459.998 785.737,447.576 798.257,471.835 770.100,489.083 " />
<polygon stroke="black" stroke-width="1" fill="rgb(204, 204, 204)" fill-opacity="0.25" points="623.330,436.783 634.280,434.870 632.357,440.975 " />
<polygon stroke="black" stroke-width="1" fill="rgb(204, 204, 204)" fill-opacity="0.25" points="635.635,472.083 637.956,501.346 577.522,471.002 " />
<polygon stroke="black" stroke-width="1" fill="rgb(204, 204, 204)" fill-opacity="0.25" points="632.357,440.975 691.994,437.329 716.028,474.424 670.732,474.509 " />
<polygon stroke="black" stroke-width="1" fill="rgb(204, 204, 204)" fill-opacity="0.25" points="483.616,454.317 488.114,459.492 440.277,456.929 440.513,452.380 " />
<polygon stroke="black" stroke-width="1" fill="rgb(204, 204, 204)" fill-opacity="0.25" points="491.477,471.482 509.008,469.941 562.214,495.809 484.942,506.936 " />
<polygon stroke="black" stroke-width="1" fill="rgb(204, 204, 204)" fill-opacity="0.25" points="740.350,433.229 775.151,427.894 785.737,447.576 754.949,459.998 " />
<polygon stroke="black" stroke-width="1" fill="rgb(204, 204, 204)" fill-opacity="0.25" points="637.956,501.346 615.776,520.044 562.214,495.809 " />
<polygon stroke="black" stroke-width="1" fill="rgb(204, 204, 204)" fill-opacity="0.25" points="296.343,524.576 353.034,457.494 362.379,458.260 358.303,488.478 " />
<polygon stroke="black" stroke-width="1" fill="rgb(204, 204, 204)" fill-opacity="0.25" points="463.346,323.048 461.643,329.489 455.952,334.237 377.103,349.396 372.830,346.149 373.243,342.295 " />
<polygon stroke="black" stroke-width="1" fill="rgb(204, 204, 204)" fill-opacity="0.25" points="440.513,452.380 440.277,456.929 368.987,449.546 373.337,446.418 " />
<polygon stroke="black" stroke-width="1" fill="rgb(204, 204, 204)" fill-opacity="0.25" points="484.942,506.936 433.694,498.997 438.784,466.892 491.477,471.482 " />
<polygon stroke="black" stroke-width="1" fill="rgb(204, 204, 204)" fill-opacity="0.25" points="353.702,448.623 303.564,445.901 313.887,356.073 362.934,351.144 " />
<polygon stroke="black" stroke-width="1" fill="rgb(204, 204, 204)" fill-opacity="0.25" points="363.650,444.571 372.048,354.774 376.868,358.315 368.419,441.921 " />
<polygon stroke="black" stroke-width="1" fill="rgb(204, 204, 204)" fill-opacity="0.25" points="354.017,540.291 358.303,488.478 433.694,498.997 425.876,553.422 " />
<polygon stroke="black" stroke-width="1" fill="rgb(204, 204, 204)" fill-opacity="0.25" points="425.876,553.422 433.694,498.997 484.942,506.936 475.533,565.787 " />
<polygon stroke="black" stroke-width="1" fill="rgb(204, 204, 204)" fill-opacity="0.25" points="377.103,349.396 455.952,334.237 453.469,340.068 381.559,353.456 " />
<polygon stroke="black" stroke-width="1" fill="rgb(204, 204, 204)" fill-opacity="0.25" points="638.879,180.782 634.691,185.595 605.809,217.724 582.015,206.133 605.407,162.235 " />
<polygon stroke="black" stroke-width="1" fill="rgb(204, 204, 204)" fill-opacity="0.25" points="479.675,329.319 473.349,327.372 549.521,282.286 547.984,286.898 " />
<polygon stroke="black" stroke-width="1" fill="rgb(204, 204, 204)" fill-opacity="0.25" points="605.809,217.724 551.684,272.614 536.135,263.040 582.015,206.133 " />
<polygon stroke="black" stroke-width="1" fill="rgb(204, 204, 204)" fill-opacity="0.25" points="463.346,323.048 373.243,342.295 379.050,291.306 462.902,297.137 " />
<polygon stroke="black" stroke-width="1" fill="rgb(204, 204, 204)" fill-opacity="0.25" points="363.821,343.543 321.696,287.402 379.050,291.306 373.243,342.295 " />
<polygon stroke="black" stroke-width="1" fill="rgb(204, 204, 204)" fill-opacity="0.25" points="433.694,498.997 358.303,488.478 362.379,458.260 438.784,466.892 " />
<polygon stroke="black" stroke-width="1" fill="rgb(204, 204, 204)" fill-opacity="0.25" points="759.448,416.525 762.718,418.572 761.492,419.899 758.566,417.179 " />
<polygon stroke="black" stroke-width="1" fill="rgb(204, 204, 204)" fill-opacity="0.25" points="581.192,916.806 576.327,913.612 539.260,941.955 540.379,945.905 " />
<polygon stroke="black" stroke-width="1" fill="rgb(204, 204, 204)" fill-opacity="0.25" points="566.119,268.737 557.255,273.419 551.684,272.614 605.809,217.724 611.797,222.709 " />
<polygon stroke="black" stroke-width="1" fill="rgb(204, 204, 204)" fill-opacity="0.25" points="362.710,453.473 368.987,449.546 440.277,456.929 438.784,466.892 362.379,458.260 " />
<polygon stroke="black" stroke-width="1" fill="rgb(204, 204, 204)" fill-opacity="0.25" points="713.931,824.712 650.717,867.191 651.253,872.368 719.008,828.482 " />
<polygon stroke="black" stroke-width="1" fill="rgb(204, 204, 204)" fill-opacity="0.25" points="577.522,471.002 637.956,501.346 562.214,495.809 " />
<polygon stroke="black" stroke-width="1" fill="rgb(204, 204, 204)" fill-opacity="0.25" points="585.056,1017.682 810.903,1018.166 806.931,989.142 795.517,962.103 777.457,938.869 754.013,920.983 726.767,909.679 697.560,905.737 668.366,909.470 641.172,920.627 617.841,938.437 599.966,961.648 588.783,988.684 " />
<polygon stroke="black" stroke-width="1" fill="rgb(204, 204, 204)" fill-opacity="0.25" points="664.805,895.658 634.159,908.227 641.172,920.627 668.366,909.470 " />
<polygon stroke="black" stroke-width="1" fill="rgb(204, 204, 204)" fill-opacity="0.25" points="825.108,1018.199 820.673,985.468 806.931,989.142 810.903,1018.166 " />
<polygon stroke="black" stroke-width="1" fill="rgb(204, 204, 204)" fill-opacity="0.25" points="634.159,908.227 607.863,928.297 617.841,938.437 641.172,920.627 " />
<polygon stroke="black" stroke-width="1" fill="rgb(204, 204, 204)" fill-opacity="0.25" points="820.673,985.468 807.858,954.977 795.517,962.103 806.931,989.142 " />
<polygon stroke="black" stroke-width="1" fill="rgb(204, 204, 204)" fill-opacity="0.25" points="607.863,928.297 587.712,954.465 599.966,961.648 617.841,938.437 " />
<polygon stroke="black" stroke-width="1" fill="rgb(204, 204, 204)" fill-opacity="0.25" points="807.858,954.977 787.569,928.789 777.457,938.869 795.517,962.103 " />
<polygon stroke="black" stroke-width="1" fill="rgb(204, 204, 204)" fill-opacity="0.25" points="587.712,954.465 575.089,984.951 588.783,988.684 599.966,961.648 " />
<polygon stroke="black" stroke-width="1" fill="rgb(204, 204, 204)" fill-opacity="0.25" points="787.569,928.789 761.217,908.643 754.013,920.983 777.457,938.869 " />
<polygon stroke="black" stroke-width="1" fill="rgb(204, 204, 204)" fill-opacity="0.25" points="575.089,984.951 570.867,1017.658 585.056,1017.682 588.783,988.684 " />
<polygon stroke="black" stroke-width="1" fill="rgb(204, 204, 204)" fill-opacity="0.25" points="761.217,908.643 730.572,895.907 726.767,909.679 754.013,920.983 " />
<polygon stroke="black" stroke-width="1" fill="rgb(204, 204, 204)" fill-opacity="0.25" points="730.572,895.907 697.694,891.461 697.560,905.737 726.767,909.679 " />
<polygon stroke="black" stroke-width="1" fill="rgb(204, 204, 204)" fill-opacity="0.25" points="1021.393,405.781 943.990,416.374 871.840,446.682 809.757,494.479 762.075,556.647 732.041,628.961 721.582,706.426 731.311,783.719 760.786,855.652 807.966,917.311 869.638,964.467 941.568,993.883 1018.833,1003.600 " />
<polygon stroke="black" stroke-width="1" fill="rgb(204, 204, 204)" fill-opacity="0.25" points="717.539,787.295 748.441,862.687 760.786,855.652 731.311,783.719 " />
<polygon stroke="black" stroke-width="1" fill="rgb(204, 204, 204)" fill-opacity="0.25" points="707.319,706.319 717.539,787.295 731.311,783.719 721.582,706.426 " />
<polygon stroke="black" stroke-width="1" fill="rgb(204, 204, 204)" fill-opacity="0.25" points="718.249,625.191 707.319,706.319 721.582,706.426 732.041,628.961 " />
<polygon stroke="black" stroke-width="1" fill="rgb(204, 204, 204)" fill-opacity="0.25" points="749.701,549.448 718.249,625.191 732.041,628.961 762.075,556.647 " />
<polygon stroke="black" stroke-width="1" fill="rgb(204, 204, 204)" fill-opacity="0.25" points="937.915,1007.632 1018.880,1017.852 1018.833,1003.600 941.568,993.883 " />
<polygon stroke="black" stroke-width="1" fill="rgb(204, 204, 204)" fill-opacity="0.25" points="799.653,484.332 749.701,549.448 762.075,556.647 809.757,494.479 " />
<polygon stroke="black" stroke-width="1" fill="rgb(204, 204, 204)" fill-opacity="0.25" points="862.535,976.770 937.915,1007.632 941.568,993.883 869.638,964.467 " />
<polygon stroke="black" stroke-width="1" fill="rgb(204, 204, 204)" fill-opacity="0.25" points="864.679,434.291 799.653,484.332 809.757,494.479 871.840,446.682 " />
<polygon stroke="black" stroke-width="1" fill="rgb(204, 204, 204)" fill-opacity="0.25" points="797.897,927.323 862.535,976.770 869.638,964.467 807.966,917.311 " />
<polygon stroke="black" stroke-width="1" fill="rgb(204, 204, 204)" fill-opacity="0.25" points="940.263,402.575 864.679,434.291 871.840,446.682 943.990,416.374 " />
<polygon stroke="black" stroke-width="1" fill="rgb(204, 204, 204)" fill-opacity="0.25" points="748.441,862.687 797.897,927.323 807.966,917.311 760.786,855.652 " />
<polygon stroke="black" stroke-width="1" fill="rgb(204, 204, 204)" fill-opacity="0.25" points="438.784,466.892 440.277,456.929 488.114,459.492 492.755,464.228 491.477,471.482 " />
<polygon stroke="black" stroke-width="1" fill="rgb(204, 204, 204)" fill-opacity="0.25" points="724.842,834.745 719.008,828.482 651.253,872.368 656.484,880.436 " />
<polygon stroke="black" stroke-width="1" fill="rgb(204, 204, 204)" fill-opacity="0.25" points="466.419,326.823 461.643,329.489 463.346,323.048 " />
<polygon stroke="black" stroke-width="1" fill="rgb(204, 204, 204)" fill-opacity="0.25" points="463.346,323.048 551.684,272.614 552.950,275.784 549.521,282.286 473.349,327.372 466.419,326.823 " />
<polygon stroke="black" stroke-width="1" fill="rgb(204, 204, 204)" fill-opacity="0.25" points="558.008,276.191 563.963,276.448 557.238,281.340 557.185,276.854 " />
<polygon stroke="black" stroke-width="1" fill="rgb(204, 204, 204)" fill-opacity="0.25" points="362.934,351.144 363.821,343.543 373.243,342.295 372.830,346.149 368.301,350.629 " />
<polygon stroke="black" stroke-width="1" fill="rgb(204, 204, 204)" fill-opacity="0.25" points="509.189,457.457 511.829,452.572 612.199,431.547 617.024,433.691 " />
<polygon stroke="black" stroke-width="1" fill="rgb(204, 204, 204)" fill-opacity="0.25" points="499.203,459.687 505.898,462.786 509.008,469.941 491.477,471.482 492.755,464.228 " />
<polygon stroke="black" stroke-width="1" fill="rgb(204, 204, 204)" fill-opacity="0.25" points="642.649,879.726 640.048,880.441 641.474,884.386 643.666,883.728 " />
<polygon stroke="black" stroke-width="1" fill="rgb(204, 204, 204)" fill-opacity="0.25" points="614.434,224.906 611.797,222.709 639.475,193.896 640.850,197.583 " />
<polygon stroke="black" stroke-width="1" fill="rgb(204, 204, 204)" fill-opacity="0.25" points="611.797,222.709 605.809,217.724 639.023,192.939 639.475,193.896 " />
<polygon stroke="black" stroke-width="1" fill="rgb(204, 204, 204)" fill-opacity="0.25" points="737.930,423.051 740.350,433.229 691.994,437.329 690.165,427.213 " />
<polygon stroke="black" stroke-width="1" fill="rgb(204, 204, 204)" fill-opacity="0.25" points="639.033,874.394 587.402,911.320 590.357,915.163 637.697,881.573 " />
<polygon stroke="black" stroke-width="1" fill="rgb(204, 204, 204)" fill-opacity="0.25" points="587.869,922.303 546.495,952.302 550.744,954.733 590.125,926.352 " />
<polygon stroke="black" stroke-width="1" fill="rgb(204, 204, 204)" fill-opacity="0.25" points="571.989,267.320 566.119,268.737 611.797,222.709 614.434,224.906 " />
<polygon stroke="black" stroke-width="1" fill="rgb(204, 204, 204)" fill-opacity="0.25" points="690.165,427.213 691.994,437.329 632.357,440.975 634.280,434.870 638.389,430.867 " />
<polygon stroke="black" stroke-width="1" fill="rgb(204, 204, 204)" fill-opacity="0.25" points="644.107,191.138 641.390,191.791 638.879,180.782 " />
<polygon stroke="black" stroke-width="1" fill="rgb(204, 204, 204)" fill-opacity="0.25" points="737.197,420.032 737.930,423.051 690.165,427.213 689.632,424.229 " />
<polygon stroke="black" stroke-width="1" fill="rgb(204, 204, 204)" fill-opacity="0.25" points="363.650,444.571 363.987,446.392 365.574,447.389 366.733,449.017 368.987,449.546 362.710,453.473 359.012,449.074 " />
<polygon stroke="black" stroke-width="1" fill="rgb(204, 204, 204)" fill-opacity="0.25" points="377.103,349.396 375.296,350.104 373.697,351.370 372.590,353.009 372.048,354.774 368.301,350.629 372.830,346.149 " />
<polygon stroke="black" stroke-width="1" fill="rgb(204, 204, 204)" fill-opacity="0.25" points="503.426,454.352 504.198,455.901 505.825,456.420 507.184,457.593 509.189,457.457 505.898,462.786 499.203,459.687 " />
<polygon stroke="black" stroke-width="1" fill="rgb(204, 204, 204)" fill-opacity="0.25" points="488.114,459.492 490.173,459.311 491.305,457.924 492.836,457.146 493.289,455.440 499.203,459.687 492.755,464.228 " />
<polygon stroke="black" stroke-width="1" fill="rgb(204, 204, 204)" fill-opacity="0.25" points="566.119,268.737 564.398,270.922 563.377,273.161 563.238,275.095 563.963,276.448 558.008,276.191 557.255,273.419 " />
<polygon stroke="black" stroke-width="1" fill="rgb(204, 204, 204)" fill-opacity="0.25" points="557.238,281.340 555.708,281.382 553.877,280.800 551.619,281.330 549.521,282.286 552.950,275.784 557.185,276.854 " />
<polygon stroke="black" stroke-width="1" fill="rgb(204, 204, 204)" fill-opacity="0.25" points="363.650,444.571 368.419,441.921 368.784,443.544 363.987,446.392 " />
<polygon stroke="black" stroke-width="1" fill="rgb(204, 204, 204)" fill-opacity="0.25" points="363.987,446.392 368.784,443.544 369.894,445.025 365.574,447.389 " />
<polygon stroke="black" stroke-width="1" fill="rgb(204, 204, 204)" fill-opacity="0.25" points="365.574,447.389 369.894,445.025 371.359,445.922 366.733,449.017 " />
<polygon stroke="black" stroke-width="1" fill="rgb(204, 204, 204)" fill-opacity="0.25" points="366.733,449.017 371.359,445.922 373.337,446.418 368.987,449.546 " />
<polygon stroke="black" stroke-width="1" fill="rgb(204, 204, 204)" fill-opacity="0.25" points="377.103,349.396 381.559,353.456 379.897,354.134 375.296,350.104 " />
<polygon stroke="black" stroke-width="1" fill="rgb(204, 204, 204)" fill-opacity="0.25" points="375.296,350.104 379.897,354.134 378.455,355.237 373.697,351.370 " />
<polygon stroke="black" stroke-width="1" fill="rgb(204, 204, 204)" fill-opacity="0.25" points="373.697,351.370 378.455,355.237 377.418,356.692 372.590,353.009 " />
<polygon stroke="black" stroke-width="1" fill="rgb(204, 204, 204)" fill-opacity="0.25" points="372.590,353.009 377.418,356.692 376.868,358.315 372.048,354.774 " />
<polygon stroke="black" stroke-width="1" fill="rgb(204, 204, 204)" fill-opacity="0.25" points="503.426,454.352 506.545,449.935 507.461,451.300 504.198,455.901 " />
<polygon stroke="black" stroke-width="1" fill="rgb(204, 204, 204)" fill-opacity="0.25" points="504.198,455.901 507.461,451.300 508.621,452.182 505.825,456.420 " />
<polygon stroke="black" stroke-width="1" fill="rgb(204, 204, 204)" fill-opacity="0.25" points="505.825,456.420 508.621,452.182 510.073,452.608 507.184,457.593 " />
<polygon stroke="black" stroke-width="1" fill="rgb(204, 204, 204)" fill-opacity="0.25" points="507.184,457.593 510.073,452.608 511.829,452.572 509.189,457.457 " />
<polygon stroke="black" stroke-width="1" fill="rgb(204, 204, 204)" fill-opacity="0.25" points="488.114,459.492 483.616,454.317 485.438,454.059 490.173,459.311 " />
<polygon stroke="black" stroke-width="1" fill="rgb(204, 204, 204)" fill-opacity="0.25" points="490.173,459.311 485.438,454.059 486.848,453.393 491.305,457.924 " />
<polygon stroke="black" stroke-width="1" fill="rgb(204, 204, 204)" fill-opacity="0.25" points="491.305,457.924 486.848,453.393 487.857,452.304 492.836,457.146 " />
<polygon stroke="black" stroke-width="1" fill="rgb(204, 204, 204)" fill-opacity="0.25" points="492.836,457.146 487.857,452.304 488.494,450.747 493.289,455.440 " />
<polygon stroke="black" stroke-width="1" fill="rgb(204, 204, 204)" fill-opacity="0.25" points="473.349,327.372 479.675,329.319 478.425,330.483 471.890,328.658 " />
<polygon stroke="black" stroke-width="1" fill="rgb(204, 204, 204)" fill-opacity="0.25" points="471.890,328.658 478.425,330.483 477.544,331.806 470.932,330.264 " />
<polygon stroke="black" stroke-width="1" fill="rgb(204, 204, 204)" fill-opacity="0.25" points="470.932,330.264 477.544,331.806 477.111,333.264 470.669,331.940 " />
<polygon stroke="black" stroke-width="1" fill="rgb(204, 204, 204)" fill-opacity="0.25" points="470.669,331.940 477.111,333.264 477.133,334.789 470.939,333.559 " />
<polygon stroke="black" stroke-width="1" fill="rgb(204, 204, 204)" fill-opacity="0.25" points="462.745,336.657 459.845,341.952 458.534,341.033 461.497,335.538 " />
<polygon stroke="black" stroke-width="1" fill="rgb(204, 204, 204)" fill-opacity="0.25" points="461.497,335.538 458.534,341.033 456.942,340.376 459.822,334.664 " />
<polygon stroke="black" stroke-width="1" fill="rgb(204, 204, 204)" fill-opacity="0.25" points="459.822,334.664 456.942,340.376 455.201,340.057 457.861,334.198 " />
<polygon stroke="black" stroke-width="1" fill="rgb(204, 204, 204)" fill-opacity="0.25" points="457.861,334.198 455.201,340.057 453.469,340.068 455.952,334.237 " />
<polygon stroke="black" stroke-width="1" fill="rgb(204, 204, 204)" fill-opacity="0.25" points="631.642,427.126 634.795,424.344 635.673,425.789 632.520,428.613 " />
<polygon stroke="black" stroke-width="1" fill="rgb(204, 204, 204)" fill-opacity="0.25" points="632.520,428.613 635.673,425.789 637.161,426.938 634.098,429.860 " />
<polygon stroke="black" stroke-width="1" fill="rgb(204, 204, 204)" fill-opacity="0.25" points="634.098,429.860 637.161,426.938 639.086,427.618 636.168,430.649 " />
<polygon stroke="black" stroke-width="1" fill="rgb(204, 204, 204)" fill-opacity="0.25" points="636.168,430.649 639.086,427.618 641.174,427.756 638.389,430.867 " />
<polygon stroke="black" stroke-width="1" fill="rgb(204, 204, 204)" fill-opacity="0.25" points="617.024,433.691 612.199,431.547 614.494,430.794 619.397,432.789 " />
<polygon stroke="black" stroke-width="1" fill="rgb(204, 204, 204)" fill-opacity="0.25" points="619.397,432.789 614.494,430.794 616.319,429.603 621.258,431.414 " />
<polygon stroke="black" stroke-width="1" fill="rgb(204, 204, 204)" fill-opacity="0.25" points="621.258,431.414 616.319,429.603 617.420,428.085 622.323,429.757 " />
<polygon stroke="black" stroke-width="1" fill="rgb(204, 204, 204)" fill-opacity="0.25" points="622.323,429.757 617.420,428.085 617.673,426.432 622.493,428.057 " />
<polygon stroke="black" stroke-width="1" fill="rgb(204, 204, 204)" fill-opacity="0.25" points="566.119,268.737 571.989,267.320 570.225,269.262 564.398,270.922 " />
<polygon stroke="black" stroke-width="1" fill="rgb(204, 204, 204)" fill-opacity="0.25" points="564.398,270.922 570.225,269.262 569.079,271.235 563.377,273.161 " />
<polygon stroke="black" stroke-width="1" fill="rgb(204, 204, 204)" fill-opacity="0.25" points="563.377,273.161 569.079,271.235 568.786,273.066 563.238,275.095 " />
<polygon stroke="black" stroke-width="1" fill="rgb(204, 204, 204)" fill-opacity="0.25" points="563.238,275.095 568.786,273.066 569.347,274.492 563.963,276.448 " />
<polygon stroke="black" stroke-width="1" fill="rgb(204, 204, 204)" fill-opacity="0.25" points="557.238,281.340 555.784,285.772 554.083,285.313 555.708,281.382 " />
<polygon stroke="black" stroke-width="1" fill="rgb(204, 204, 204)" fill-opacity="0.25" points="555.708,281.382 554.083,285.313 552.139,285.336 553.877,280.800 " />
<polygon stroke="black" stroke-width="1" fill="rgb(204, 204, 204)" fill-opacity="0.25" points="553.877,280.800 552.139,285.336 550.006,285.910 551.619,281.330 " />
<polygon stroke="black" stroke-width="1" fill="rgb(204, 204, 204)" fill-opacity="0.25" points="551.619,281.330 550.006,285.910 547.984,286.898 549.521,282.286 " />
<polygon stroke="black" stroke-width="1" fill="rgb(204, 204, 204)" fill-opacity="0.25" points="353.034,457.494 353.702,448.623 359.012,449.074 362.710,453.473 362.379,458.260 " />
<polygon stroke="black" stroke-width="1" fill="rgb(204, 204, 204)" fill-opacity="0.25" points="470.939,333.559 462.745,336.657 461.497,335.538 459.822,334.664 457.861,334.198 455.952,334.237 461.643,329.489 466.419,326.823 473.349,327.372 471.890,328.658 470.932,330.264 470.669,331.940 " />
<polygon stroke="black" stroke-width="1" fill="rgb(204, 204, 204)" fill-opacity="0.25" points="622.493,428.057 631.642,427.126 632.520,428.613 634.098,429.860 636.168,430.649 638.389,430.867 634.280,434.870 623.330,436.783 617.024,433.691 619.397,432.789 621.258,431.414 622.323,429.757 " />
<polygon stroke="black" stroke-width="1" fill="rgb(204, 204, 204)" fill-opacity="0.25" points="756.934,418.057 759.779,421.188 737.930,423.051 737.197,420.032 " />
<polygon stroke="black" stroke-width="1" fill="rgb(204, 204, 204)" fill-opacity="0.25" points="763.396,415.164 770.365,418.756 763.415,416.817 " />
<polygon stroke="black" stroke-width="1" fill="rgb(204, 204, 204)" fill-opacity="0.25" points="759.749,413.708 763.396,415.164 763.415,416.817 759.848,415.099 " />
<polygon stroke="black" stroke-width="1" fill="rgb(204, 204, 204)" fill-opacity="0.25" points="770.365,418.756 759.779,421.188 761.492,419.899 " />
<polygon stroke="black" stroke-width="1" fill="rgb(204, 204, 204)" fill-opacity="0.25" points="770.365,418.756 775.151,427.894 759.779,421.188 " />
<polygon stroke="black" stroke-width="1" fill="rgb(204, 204, 204)" fill-opacity="0.25" points="759.848,415.099 763.415,416.817 762.718,418.572 759.448,416.525 " />
<polygon stroke="black" stroke-width="1" fill="rgb(204, 204, 204)" fill-opacity="0.25" points="763.415,416.817 770.365,418.756 762.718,418.572 " />
<polygon stroke="black" stroke-width="1" fill="rgb(204, 204, 204)" fill-opacity="0.25" points="761.492,419.899 762.718,418.572 770.365,418.756 " />
<polygon stroke="black" stroke-width="1" fill="rgb(204, 204, 204)" fill-opacity="0.25" points="758.566,417.179 761.492,419.899 759.779,421.188 756.934,418.057 " />
<polygon stroke="black" stroke-width="1" fill="rgb(204, 204, 204)" fill-opacity="0.25" points="638.879,180.782 647.036,185.379 644.107,191.138 " />
<polygon stroke="black" stroke-width="1" fill="rgb(204, 204, 204)" fill-opacity="0.25" points="639.241,885.483 637.697,881.573 590.357,915.163 594.088,916.454 " />
<polygon stroke="black" stroke-width="1" fill="rgb(204, 204, 204)" fill-opacity="0.25" points="637.697,881.573 640.048,880.441 639.033,874.394 " />
<polygon stroke="black" stroke-width="1" fill="rgb(204, 204, 204)" fill-opacity="0.25" points="640.850,197.583 639.475,193.896 641.464,192.414 642.419,196.154 " />
<polygon stroke="black" stroke-width="1" fill="rgb(204, 204, 204)" fill-opacity="0.25" points="639.475,193.896 639.023,192.939 641.390,191.791 641.464,192.414 " />
<polygon stroke="black" stroke-width="1" fill="rgb(204, 204, 204)" fill-opacity="0.25" points="634.691,185.595 639.023,192.939 605.809,217.724 " />
<polygon stroke="black" stroke-width="1" fill="rgb(204, 204, 204)" fill-opacity="0.25" points="642.419,196.154 641.464,192.414 644.107,191.138 644.475,195.212 " />
<polygon stroke="black" stroke-width="1" fill="rgb(204, 204, 204)" fill-opacity="0.25" points="638.879,180.782 641.390,191.791 639.023,192.939 634.691,185.595 " />
<polygon stroke="black" stroke-width="1" fill="rgb(204, 204, 204)" fill-opacity="0.25" points="641.464,192.414 641.390,191.791 644.107,191.138 " />
<polygon stroke="black" stroke-width="1" fill="rgb(204, 204, 204)" fill-opacity="0.25" points="641.474,884.386 640.048,880.441 637.697,881.573 639.241,885.483 " />
<polygon stroke="black" stroke-width="1" fill="rgb(204, 204, 204)" fill-opacity="0.25" points="639.033,874.394 640.048,880.441 642.649,879.726 " />
<polygon stroke="black" stroke-width="1" fill="rgb(204, 204, 204)" fill-opacity="0.25" points="587.869,922.303 581.192,916.806 540.379,945.905 546.495,952.302 " />
<polygon stroke="black" stroke-width="1" fill="rgb(204, 204, 204)" fill-opacity="0.25" points="493.289,455.440 503.426,454.352 499.203,459.687 " />
<polygon stroke="black" stroke-width="1" fill="rgb(204, 204, 204)" fill-opacity="0.25" points="763.396,415.164 768.042,413.355 770.365,418.756 " />
<polygon stroke="black" stroke-width="1" fill="rgb(204, 204, 204)" fill-opacity="0.25" points="644.580,308.227 782.959,299.732 790.828,245.828 661.811,244.946 " />
<polygon stroke="black" stroke-width="1" fill="rgb(204, 204, 204)" fill-opacity="0.25" points="1019.328,260.926 971.102,187.510 894.193,222.364 904.109,308.227 " />
<polygon stroke="black" stroke-width="1" fill="rgb(204, 204, 204)" fill-opacity="0.25" points="904.109,308.227 894.193,222.364 790.828,245.828 782.959,299.732 " />

</svg>
