<?xml version="1.0" standalone="no"?>
<!DOCTYPE svg PUBLIC "-//W3C//DTD SVG 1.1//EN" 
  "http://www.w3.org/Graphics/SVG/1.1/DTD/svg11.dtd">
<svg width="1024" height="1024" viewBox="0 0 1024 1024"
     xmlns="http://www.w3.org/2000/svg" version="1.1">
<desc>'25DC9.blend', DC-9_mergedObject.004, (Blender 2.78 (sub 0))</desc>
<polygon stroke="black" stroke-width="1" fill="rgb(204, 204, 204)" fill-opacity="0.25" points="223.535,2.376 197.758,22.370 245.663,84.718 271.627,65.798 " />
<polygon stroke="black" stroke-width="1" fill="rgb(204, 204, 204)" fill-opacity="0.25" points="275.381,2.537 266.322,42.673 318.783,40.575 309.405,2.300 " />
<polygon stroke="black" stroke-width="1" fill="rgb(204, 204, 204)" fill-opacity="0.25" points="18.279,36.518 2.044,99.820 59.734,125.419 68.583,42.814 " />
<polygon stroke="black" stroke-width="1" fill="rgb(204, 204, 204)" fill-opacity="0.25" points="74.294,42.694 65.137,126.300 154.309,111.043 132.984,39.650 " />
<polygon stroke="black" stroke-width="1" fill="rgb(204, 204, 204)" fill-opacity="0.25" points="240.035,88.562 193.251,25.234 139.424,38.880 160.801,108.419 " />
<polygon stroke="black" stroke-width="1" fill="rgb(204, 204, 204)" fill-opacity="0.25" points="545.054,523.184 511.660,542.327 506.529,552.192 548.313,528.332 " />
<polygon stroke="black" stroke-width="1" fill="rgb(204, 204, 204)" fill-opacity="0.25" points="765.955,769.450 774.714,834.806 788.583,831.086 780.298,769.480 " />
<polygon stroke="black" stroke-width="1" fill="rgb(204, 204, 204)" fill-opacity="0.25" points="955.009,1013.035 1020.842,1021.608 1020.897,1007.162 958.752,999.081 " />
<polygon stroke="black" stroke-width="1" fill="rgb(204, 204, 204)" fill-opacity="0.25" points="799.938,643.345 774.555,704.135 788.385,707.913 812.305,650.611 " />
<polygon stroke="black" stroke-width="1" fill="rgb(204, 204, 204)" fill-opacity="0.25" points="774.555,704.135 765.955,769.450 780.298,769.480 788.385,707.913 " />
<polygon stroke="black" stroke-width="1" fill="rgb(204, 204, 204)" fill-opacity="0.25" points="840.354,591.244 799.938,643.345 812.305,650.611 850.425,601.497 " />
<polygon stroke="black" stroke-width="1" fill="rgb(204, 204, 204)" fill-opacity="0.25" points="7.634,755.763 4.563,822.422 56.402,824.221 59.365,758.963 " />
<polygon stroke="black" stroke-width="1" fill="rgb(204, 204, 204)" fill-opacity="0.25" points="112.775,293.013 86.554,357.121 136.176,376.128 161.864,314.169 " />
<polygon stroke="black" stroke-width="1" fill="rgb(204, 204, 204)" fill-opacity="0.25" points="4.563,822.422 3.034,889.093 55.014,889.832 56.402,824.221 " />
<polygon stroke="black" stroke-width="1" fill="rgb(204, 204, 204)" fill-opacity="0.25" points="86.554,357.121 63.740,422.439 114.083,438.531 136.176,376.128 " />
<polygon stroke="black" stroke-width="1" fill="rgb(204, 204, 204)" fill-opacity="0.25" points="3.034,889.093 2.616,955.802 54.767,955.845 55.014,889.832 " />
<polygon stroke="black" stroke-width="1" fill="rgb(204, 204, 204)" fill-opacity="0.25" points="63.740,422.439 45.103,488.774 96.029,501.696 114.083,438.531 " />
<polygon stroke="black" stroke-width="1" fill="rgb(204, 204, 204)" fill-opacity="0.25" points="2.616,955.802 2.830,1022.553 62.890,1022.485 54.767,955.845 " />
<polygon stroke="black" stroke-width="1" fill="rgb(204, 204, 204)" fill-opacity="0.25" points="45.103,488.774 30.747,555.542 82.035,565.389 96.029,501.696 " />
<polygon stroke="black" stroke-width="1" fill="rgb(204, 204, 204)" fill-opacity="0.25" points="30.747,555.542 20.210,622.344 71.767,629.485 82.035,565.389 " />
<polygon stroke="black" stroke-width="1" fill="rgb(204, 204, 204)" fill-opacity="0.25" points="20.210,622.344 12.685,689.089 64.301,694.080 71.767,629.485 " />
<polygon stroke="black" stroke-width="1" fill="rgb(204, 204, 204)" fill-opacity="0.25" points="12.685,689.089 7.634,755.763 59.365,758.963 64.301,694.080 " />
<polygon stroke="black" stroke-width="1" fill="rgb(204, 204, 204)" fill-opacity="0.25" points="140.888,229.857 112.775,293.013 161.864,314.169 190.396,251.894 " />
<polygon stroke="black" stroke-width="1" fill="rgb(204, 204, 204)" fill-opacity="0.25" points="82.035,565.389 71.767,629.485 165.227,650.135 174.872,595.865 " />
<polygon stroke="black" stroke-width="1" fill="rgb(204, 204, 204)" fill-opacity="0.25" points="71.767,629.485 64.301,694.080 158.540,710.640 165.227,650.135 " />
<polygon stroke="black" stroke-width="1" fill="rgb(204, 204, 204)" fill-opacity="0.25" points="64.301,694.080 59.365,758.963 154.250,770.924 158.540,710.640 " />
<polygon stroke="black" stroke-width="1" fill="rgb(204, 204, 204)" fill-opacity="0.25" points="190.396,251.894 161.864,314.169 252.505,359.936 284.378,299.316 " />
<polygon stroke="black" stroke-width="1" fill="rgb(204, 204, 204)" fill-opacity="0.25" points="59.365,758.963 56.402,824.221 152.146,832.285 154.250,770.924 " />
<polygon stroke="black" stroke-width="1" fill="rgb(204, 204, 204)" fill-opacity="0.25" points="161.864,314.169 136.176,376.128 227.751,414.948 252.505,359.936 " />
<polygon stroke="black" stroke-width="1" fill="rgb(204, 204, 204)" fill-opacity="0.25" points="56.402,824.221 55.014,889.832 151.678,894.307 152.146,832.285 " />
<polygon stroke="black" stroke-width="1" fill="rgb(204, 204, 204)" fill-opacity="0.25" points="136.176,376.128 114.083,438.531 203.548,480.446 227.751,414.948 " />
<polygon stroke="black" stroke-width="1" fill="rgb(204, 204, 204)" fill-opacity="0.25" points="55.014,889.832 54.767,955.845 152.441,957.090 151.678,894.307 " />
<polygon stroke="black" stroke-width="1" fill="rgb(204, 204, 204)" fill-opacity="0.25" points="114.083,438.531 96.029,501.696 183.689,546.338 203.548,480.446 " />
<polygon stroke="black" stroke-width="1" fill="rgb(204, 204, 204)" fill-opacity="0.25" points="54.767,955.845 62.890,1022.485 154.077,1020.809 152.441,957.090 " />
<polygon stroke="black" stroke-width="1" fill="rgb(204, 204, 204)" fill-opacity="0.25" points="96.029,501.696 82.035,565.389 174.872,595.865 183.689,546.338 " />
<polygon stroke="black" stroke-width="1" fill="rgb(204, 204, 204)" fill-opacity="0.25" points="152.146,832.285 151.678,894.307 252.162,901.963 251.532,845.817 " />
<polygon stroke="black" stroke-width="1" fill="rgb(204, 204, 204)" fill-opacity="0.25" points="227.751,414.948 236.993,491.100 306.653,448.895 " />
<polygon stroke="black" stroke-width="1" fill="rgb(204, 204, 204)" fill-opacity="0.25" points="151.678,894.307 152.441,957.090 254.161,958.599 252.162,901.963 " />
<polygon stroke="black" stroke-width="1" fill="rgb(204, 204, 204)" fill-opacity="0.25" points="152.441,957.090 154.077,1020.809 257.085,1016.249 254.161,958.599 " />
<polygon stroke="black" stroke-width="1" fill="rgb(204, 204, 204)" fill-opacity="0.25" points="174.872,595.865 165.227,650.135 262.155,681.328 273.164,629.700 " />
<polygon stroke="black" stroke-width="1" fill="rgb(204, 204, 204)" fill-opacity="0.25" points="165.227,650.135 158.540,710.640 255.954,736.525 262.155,681.328 " />
<polygon stroke="black" stroke-width="1" fill="rgb(204, 204, 204)" fill-opacity="0.25" points="158.540,710.640 154.250,770.924 252.662,790.785 255.954,736.525 " />
<polygon stroke="black" stroke-width="1" fill="rgb(204, 204, 204)" fill-opacity="0.25" points="284.378,299.316 252.505,359.936 342.069,411.377 381.784,362.987 " />
<polygon stroke="black" stroke-width="1" fill="rgb(204, 204, 204)" fill-opacity="0.25" points="154.250,770.924 152.146,832.285 251.532,845.817 252.662,790.785 " />
<polygon stroke="black" stroke-width="1" fill="rgb(204, 204, 204)" fill-opacity="0.25" points="309.184,647.500 302.086,697.487 354.650,716.977 365.539,671.492 " />
<polygon stroke="black" stroke-width="1" fill="rgb(204, 204, 204)" fill-opacity="0.25" points="302.086,697.487 295.858,749.971 347.970,765.779 354.650,716.977 " />
<polygon stroke="black" stroke-width="1" fill="rgb(204, 204, 204)" fill-opacity="0.25" points="295.858,749.971 293.036,800.421 345.303,811.839 347.970,765.779 " />
<polygon stroke="black" stroke-width="1" fill="rgb(204, 204, 204)" fill-opacity="0.25" points="381.784,362.987 342.069,411.377 376.635,431.785 420.609,394.348 " />
<polygon stroke="black" stroke-width="1" fill="rgb(204, 204, 204)" fill-opacity="0.25" points="293.036,800.421 292.412,851.330 345.143,858.217 345.303,811.839 " />
<polygon stroke="black" stroke-width="1" fill="rgb(204, 204, 204)" fill-opacity="0.25" points="292.412,851.330 293.315,905.251 346.311,909.353 345.143,858.217 " />
<polygon stroke="black" stroke-width="1" fill="rgb(204, 204, 204)" fill-opacity="0.25" points="293.315,905.251 295.787,959.033 349.340,959.243 346.311,909.353 " />
<polygon stroke="black" stroke-width="1" fill="rgb(204, 204, 204)" fill-opacity="0.25" points="310.396,511.252 365.343,505.008 368.931,499.339 305.858,507.311 " />
<polygon stroke="black" stroke-width="1" fill="rgb(204, 204, 204)" fill-opacity="0.25" points="295.787,959.033 299.246,1013.685 353.627,1009.431 349.340,959.243 " />
<polygon stroke="black" stroke-width="1" fill="rgb(204, 204, 204)" fill-opacity="0.25" points="345.143,858.217 346.311,909.353 398.666,913.625 396.865,865.986 " />
<polygon stroke="black" stroke-width="1" fill="rgb(204, 204, 204)" fill-opacity="0.25" points="346.311,909.353 349.340,959.243 402.150,958.882 398.666,913.625 " />
<polygon stroke="black" stroke-width="1" fill="rgb(204, 204, 204)" fill-opacity="0.25" points="349.340,959.243 353.627,1009.431 407.046,1002.877 402.150,958.882 " />
<polygon stroke="black" stroke-width="1" fill="rgb(204, 204, 204)" fill-opacity="0.25" points="379.069,631.427 365.539,671.492 417.614,695.588 430.305,658.075 " />
<polygon stroke="black" stroke-width="1" fill="rgb(204, 204, 204)" fill-opacity="0.25" points="365.539,671.492 354.650,716.977 406.896,737.073 417.614,695.588 " />
<polygon stroke="black" stroke-width="1" fill="rgb(204, 204, 204)" fill-opacity="0.25" points="354.650,716.977 347.970,765.779 400.373,781.203 406.896,737.073 " />
<polygon stroke="black" stroke-width="1" fill="rgb(204, 204, 204)" fill-opacity="0.25" points="347.970,765.779 345.303,811.839 397.223,822.872 400.373,781.203 " />
<polygon stroke="black" stroke-width="1" fill="rgb(204, 204, 204)" fill-opacity="0.25" points="345.303,811.839 345.143,858.217 396.865,865.986 397.223,822.872 " />
<polygon stroke="black" stroke-width="1" fill="rgb(204, 204, 204)" fill-opacity="0.25" points="379.069,631.427 303.329,601.495 309.184,647.500 365.539,671.492 " />
<polygon stroke="black" stroke-width="1" fill="rgb(204, 204, 204)" fill-opacity="0.25" points="285.586,592.231 223.544,564.965 217.001,568.290 284.521,597.831 " />
<polygon stroke="black" stroke-width="1" fill="rgb(204, 204, 204)" fill-opacity="0.25" points="506.529,552.192 414.954,579.835 461.180,597.756 " />
<polygon stroke="black" stroke-width="1" fill="rgb(204, 204, 204)" fill-opacity="0.25" points="397.122,582.696 448.107,618.512 461.180,597.756 414.954,579.835 " />
<polygon stroke="black" stroke-width="1" fill="rgb(204, 204, 204)" fill-opacity="0.25" points="506.529,552.192 500.323,548.042 407.320,575.469 414.954,579.835 " />
<polygon stroke="black" stroke-width="1" fill="rgb(204, 204, 204)" fill-opacity="0.25" points="407.320,575.469 380.370,497.270 368.931,499.339 396.300,578.450 " />
<polygon stroke="black" stroke-width="1" fill="rgb(204, 204, 204)" fill-opacity="0.25" points="217.001,568.290 223.544,564.965 240.708,498.091 236.993,491.100 " />
<polygon stroke="black" stroke-width="1" fill="rgb(204, 204, 204)" fill-opacity="0.25" points="312.906,454.073 350.161,453.563 353.875,447.228 306.653,448.895 " />
<polygon stroke="black" stroke-width="1" fill="rgb(204, 204, 204)" fill-opacity="0.25" points="368.931,499.339 380.370,497.270 375.118,491.491 " />
<polygon stroke="black" stroke-width="1" fill="rgb(204, 204, 204)" fill-opacity="0.25" points="240.708,498.091 295.832,506.067 298.052,500.255 236.993,491.100 " />
<polygon stroke="black" stroke-width="1" fill="rgb(204, 204, 204)" fill-opacity="0.25" points="306.653,448.895 342.069,411.377 252.505,359.936 227.751,414.948 " />
<polygon stroke="black" stroke-width="1" fill="rgb(204, 204, 204)" fill-opacity="0.25" points="407.320,575.469 396.300,578.450 397.122,582.696 414.954,579.835 " />
<polygon stroke="black" stroke-width="1" fill="rgb(204, 204, 204)" fill-opacity="0.25" points="396.300,578.450 300.173,594.687 303.329,601.495 397.122,582.696 " />
<polygon stroke="black" stroke-width="1" fill="rgb(204, 204, 204)" fill-opacity="0.25" points="285.586,592.231 300.173,594.687 305.858,507.311 295.832,506.067 " />
<polygon stroke="black" stroke-width="1" fill="rgb(204, 204, 204)" fill-opacity="0.25" points="500.323,548.042 440.734,474.685 438.877,481.341 492.243,545.604 " />
<polygon stroke="black" stroke-width="1" fill="rgb(204, 204, 204)" fill-opacity="0.25" points="1020.161,517.551 954.339,526.122 957.990,540.090 1020.113,532.004 " />
<polygon stroke="black" stroke-width="1" fill="rgb(204, 204, 204)" fill-opacity="0.25" points="900.794,975.395 958.752,999.081 1020.897,1007.162 1020.113,532.004 957.990,540.090 900.115,563.789 850.425,601.497 812.305,650.611 788.385,707.913 780.298,769.480 788.583,831.086 812.687,888.469 850.970,937.678 " />
<polygon stroke="black" stroke-width="1" fill="rgb(204, 204, 204)" fill-opacity="0.25" points="800.250,895.685 840.815,947.894 850.970,937.678 812.687,888.469 " />
<polygon stroke="black" stroke-width="1" fill="rgb(204, 204, 204)" fill-opacity="0.25" points="954.339,526.122 893.012,551.252 900.115,563.789 957.990,540.090 " />
<polygon stroke="black" stroke-width="1" fill="rgb(204, 204, 204)" fill-opacity="0.25" points="840.815,947.894 893.606,987.907 900.794,975.395 850.970,937.678 " />
<polygon stroke="black" stroke-width="1" fill="rgb(204, 204, 204)" fill-opacity="0.25" points="774.714,834.806 800.250,895.685 812.687,888.469 788.583,831.086 " />
<polygon stroke="black" stroke-width="1" fill="rgb(204, 204, 204)" fill-opacity="0.25" points="893.012,551.252 840.354,591.244 850.425,601.497 900.115,563.789 " />
<polygon stroke="black" stroke-width="1" fill="rgb(204, 204, 204)" fill-opacity="0.25" points="893.606,987.907 955.009,1013.035 958.752,999.081 900.794,975.395 " />
<polygon stroke="black" stroke-width="1" fill="rgb(204, 204, 204)" fill-opacity="0.25" points="451.354,797.177 448.389,835.290 522.264,853.226 524.779,820.806 " />
<polygon stroke="black" stroke-width="1" fill="rgb(204, 204, 204)" fill-opacity="0.25" points="457.230,757.531 451.354,797.177 524.779,820.806 529.744,788.656 " />
<polygon stroke="black" stroke-width="1" fill="rgb(204, 204, 204)" fill-opacity="0.25" points="466.955,719.800 457.230,757.531 529.744,788.656 537.558,757.046 " />
<polygon stroke="black" stroke-width="1" fill="rgb(204, 204, 204)" fill-opacity="0.25" points="479.276,685.741 466.955,719.800 537.558,757.046 548.465,726.321 " />
<polygon stroke="black" stroke-width="1" fill="rgb(204, 204, 204)" fill-opacity="0.25" points="452.958,956.149 457.715,995.180 530.624,982.734 526.100,950.591 " />
<polygon stroke="black" stroke-width="1" fill="rgb(204, 204, 204)" fill-opacity="0.25" points="495.429,650.480 479.276,685.741 548.465,726.321 562.629,696.896 " />
<polygon stroke="black" stroke-width="1" fill="rgb(204, 204, 204)" fill-opacity="0.25" points="449.574,915.986 452.958,956.149 526.100,950.591 523.186,918.221 " />
<polygon stroke="black" stroke-width="1" fill="rgb(204, 204, 204)" fill-opacity="0.25" points="509.906,624.602 495.429,650.480 562.629,696.896 580.260,669.279 " />
<polygon stroke="black" stroke-width="1" fill="rgb(204, 204, 204)" fill-opacity="0.25" points="447.951,874.394 449.574,915.986 523.186,918.221 521.850,885.738 " />
<polygon stroke="black" stroke-width="1" fill="rgb(204, 204, 204)" fill-opacity="0.25" points="450.949,468.298 440.734,474.685 500.323,548.042 511.660,542.327 " />
<polygon stroke="black" stroke-width="1" fill="rgb(204, 204, 204)" fill-opacity="0.25" points="511.660,542.327 500.323,548.042 506.529,552.192 " />
<polygon stroke="black" stroke-width="1" fill="rgb(204, 204, 204)" fill-opacity="0.25" points="366.678,493.947 307.161,500.699 305.858,507.311 368.931,499.339 " />
<polygon stroke="black" stroke-width="1" fill="rgb(204, 204, 204)" fill-opacity="0.25" points="312.906,454.073 307.161,500.699 312.252,495.181 317.139,458.430 " />
<polygon stroke="black" stroke-width="1" fill="rgb(204, 204, 204)" fill-opacity="0.25" points="376.635,431.785 375.118,491.491 433.468,469.996 " />
<polygon stroke="black" stroke-width="1" fill="rgb(204, 204, 204)" fill-opacity="0.25" points="542.764,588.448 509.906,624.602 580.260,669.279 601.584,644.237 " />
<polygon stroke="black" stroke-width="1" fill="rgb(204, 204, 204)" fill-opacity="0.25" points="420.609,394.348 376.635,431.785 433.468,469.996 448.085,461.300 " />
<polygon stroke="black" stroke-width="1" fill="rgb(204, 204, 204)" fill-opacity="0.25" points="450.949,468.298 473.154,438.325 468.274,434.574 448.085,461.300 " />
<polygon stroke="black" stroke-width="1" fill="rgb(204, 204, 204)" fill-opacity="0.25" points="448.389,835.290 447.951,874.394 521.850,885.738 522.264,853.226 " />
<polygon stroke="black" stroke-width="1" fill="rgb(204, 204, 204)" fill-opacity="0.25" points="542.764,588.448 601.584,644.237 625.590,621.753 574.420,561.639 " />
<polygon stroke="black" stroke-width="1" fill="rgb(204, 204, 204)" fill-opacity="0.25" points="375.118,491.491 376.635,431.785 353.875,447.228 " />
<polygon stroke="black" stroke-width="1" fill="rgb(204, 204, 204)" fill-opacity="0.25" points="506.529,552.192 542.764,588.448 574.420,561.639 548.313,528.332 " />
<polygon stroke="black" stroke-width="1" fill="rgb(204, 204, 204)" fill-opacity="0.25" points="397.223,822.872 396.865,865.986 447.951,874.394 448.389,835.290 " />
<polygon stroke="black" stroke-width="1" fill="rgb(204, 204, 204)" fill-opacity="0.25" points="506.529,552.192 461.180,597.756 509.906,624.602 542.764,588.448 " />
<polygon stroke="black" stroke-width="1" fill="rgb(204, 204, 204)" fill-opacity="0.25" points="396.865,865.986 398.666,913.625 449.574,915.986 447.951,874.394 " />
<polygon stroke="black" stroke-width="1" fill="rgb(204, 204, 204)" fill-opacity="0.25" points="461.180,597.756 448.107,618.512 495.429,650.480 509.906,624.602 " />
<polygon stroke="black" stroke-width="1" fill="rgb(204, 204, 204)" fill-opacity="0.25" points="398.666,913.625 402.150,958.882 452.958,956.149 449.574,915.986 " />
<polygon stroke="black" stroke-width="1" fill="rgb(204, 204, 204)" fill-opacity="0.25" points="448.107,618.512 430.305,658.075 479.276,685.741 495.429,650.480 " />
<polygon stroke="black" stroke-width="1" fill="rgb(204, 204, 204)" fill-opacity="0.25" points="402.150,958.882 407.046,1002.877 457.715,995.180 452.958,956.149 " />
<polygon stroke="black" stroke-width="1" fill="rgb(204, 204, 204)" fill-opacity="0.25" points="430.305,658.075 417.614,695.588 466.955,719.800 479.276,685.741 " />
<polygon stroke="black" stroke-width="1" fill="rgb(204, 204, 204)" fill-opacity="0.25" points="417.614,695.588 406.896,737.073 457.230,757.531 466.955,719.800 " />
<polygon stroke="black" stroke-width="1" fill="rgb(204, 204, 204)" fill-opacity="0.25" points="406.896,737.073 400.373,781.203 451.354,797.177 457.230,757.531 " />
<polygon stroke="black" stroke-width="1" fill="rgb(204, 204, 204)" fill-opacity="0.25" points="400.373,781.203 397.223,822.872 448.389,835.290 451.354,797.177 " />
<polygon stroke="black" stroke-width="1" fill="rgb(204, 204, 204)" fill-opacity="0.25" points="236.993,491.100 298.052,500.255 306.653,448.895 " />
<polygon stroke="black" stroke-width="1" fill="rgb(204, 204, 204)" fill-opacity="0.25" points="298.052,500.255 307.161,500.699 312.906,454.073 306.653,448.895 " />
<polygon stroke="black" stroke-width="1" fill="rgb(204, 204, 204)" fill-opacity="0.25" points="303.329,601.495 300.173,594.687 285.586,592.231 284.521,597.831 " />
<polygon stroke="black" stroke-width="1" fill="rgb(204, 204, 204)" fill-opacity="0.25" points="303.329,601.495 379.069,631.427 397.122,582.696 " />
<polygon stroke="black" stroke-width="1" fill="rgb(204, 204, 204)" fill-opacity="0.25" points="468.274,434.574 420.609,394.348 448.085,461.300 " />
<polygon stroke="black" stroke-width="1" fill="rgb(204, 204, 204)" fill-opacity="0.25" points="203.548,480.446 183.689,546.338 217.001,568.290 236.993,491.100 " />
<polygon stroke="black" stroke-width="1" fill="rgb(204, 204, 204)" fill-opacity="0.25" points="217.001,568.290 174.872,595.865 273.164,629.700 284.521,597.831 " />
<polygon stroke="black" stroke-width="1" fill="rgb(204, 204, 204)" fill-opacity="0.25" points="307.161,500.699 295.832,506.067 305.858,507.311 " />
<polygon stroke="black" stroke-width="1" fill="rgb(204, 204, 204)" fill-opacity="0.25" points="366.678,493.947 368.931,499.339 375.118,491.491 " />
<polygon stroke="black" stroke-width="1" fill="rgb(204, 204, 204)" fill-opacity="0.25" points="307.161,500.699 298.052,500.255 295.832,506.067 " />
<polygon stroke="black" stroke-width="1" fill="rgb(204, 204, 204)" fill-opacity="0.25" points="375.118,491.491 380.370,497.270 440.734,474.685 433.468,469.996 " />
<polygon stroke="black" stroke-width="1" fill="rgb(204, 204, 204)" fill-opacity="0.25" points="353.875,447.228 376.635,431.785 342.069,411.377 306.653,448.895 " />
<polygon stroke="black" stroke-width="1" fill="rgb(204, 204, 204)" fill-opacity="0.25" points="433.468,469.996 440.734,474.685 450.949,468.298 448.085,461.300 " />
<polygon stroke="black" stroke-width="1" fill="rgb(204, 204, 204)" fill-opacity="0.25" points="375.118,491.491 353.875,447.228 350.161,453.563 366.678,493.947 " />
<polygon stroke="black" stroke-width="1" fill="rgb(204, 204, 204)" fill-opacity="0.25" points="236.993,491.100 227.751,414.948 203.548,480.446 " />
<polygon stroke="black" stroke-width="1" fill="rgb(204, 204, 204)" fill-opacity="0.25" points="379.069,631.427 430.305,658.075 448.107,618.512 397.122,582.696 " />
<polygon stroke="black" stroke-width="1" fill="rgb(204, 204, 204)" fill-opacity="0.25" points="254.161,958.599 257.085,1016.249 299.246,1013.685 295.787,959.033 " />
<polygon stroke="black" stroke-width="1" fill="rgb(204, 204, 204)" fill-opacity="0.25" points="252.162,901.963 254.161,958.599 295.787,959.033 293.315,905.251 " />
<polygon stroke="black" stroke-width="1" fill="rgb(204, 204, 204)" fill-opacity="0.25" points="251.532,845.817 252.162,901.963 293.315,905.251 292.412,851.330 " />
<polygon stroke="black" stroke-width="1" fill="rgb(204, 204, 204)" fill-opacity="0.25" points="252.662,790.785 251.532,845.817 292.412,851.330 293.036,800.421 " />
<polygon stroke="black" stroke-width="1" fill="rgb(204, 204, 204)" fill-opacity="0.25" points="255.954,736.525 252.662,790.785 293.036,800.421 295.858,749.971 " />
<polygon stroke="black" stroke-width="1" fill="rgb(204, 204, 204)" fill-opacity="0.25" points="262.155,681.328 255.954,736.525 295.858,749.971 302.086,697.487 " />
<polygon stroke="black" stroke-width="1" fill="rgb(204, 204, 204)" fill-opacity="0.25" points="273.164,629.700 262.155,681.328 302.086,697.487 309.184,647.500 " />
<polygon stroke="black" stroke-width="1" fill="rgb(204, 204, 204)" fill-opacity="0.25" points="303.329,601.495 284.521,597.831 273.164,629.700 309.184,647.500 " />
<polygon stroke="black" stroke-width="1" fill="rgb(204, 204, 204)" fill-opacity="0.25" points="217.001,568.290 183.689,546.338 174.872,595.865 " />
<polygon stroke="black" stroke-width="1" fill="rgb(204, 204, 204)" fill-opacity="0.25" points="240.708,498.091 243.902,503.425 290.562,509.779 295.832,506.067 " />
<polygon stroke="black" stroke-width="1" fill="rgb(204, 204, 204)" fill-opacity="0.25" points="285.586,592.231 295.832,506.067 290.562,509.779 282.134,586.149 " />
<polygon stroke="black" stroke-width="1" fill="rgb(204, 204, 204)" fill-opacity="0.25" points="304.799,589.541 300.173,594.687 396.300,578.450 390.026,574.403 " />
<polygon stroke="black" stroke-width="1" fill="rgb(204, 204, 204)" fill-opacity="0.25" points="440.734,474.685 380.370,497.270 386.005,499.971 438.877,481.341 " />
<polygon stroke="black" stroke-width="1" fill="rgb(204, 204, 204)" fill-opacity="0.25" points="223.544,564.965 229.430,562.112 243.902,503.425 240.708,498.091 " />
<polygon stroke="black" stroke-width="1" fill="rgb(204, 204, 204)" fill-opacity="0.25" points="223.544,564.965 285.586,592.231 282.134,586.149 229.430,562.112 " />
<polygon stroke="black" stroke-width="1" fill="rgb(204, 204, 204)" fill-opacity="0.25" points="350.161,453.563 346.791,458.713 360.689,490.447 366.678,493.947 " />
<polygon stroke="black" stroke-width="1" fill="rgb(204, 204, 204)" fill-opacity="0.25" points="396.300,578.450 368.931,499.339 365.343,505.008 390.026,574.403 " />
<polygon stroke="black" stroke-width="1" fill="rgb(204, 204, 204)" fill-opacity="0.25" points="304.799,589.541 310.396,511.252 305.858,507.311 300.173,594.687 " />
<polygon stroke="black" stroke-width="1" fill="rgb(204, 204, 204)" fill-opacity="0.25" points="366.678,493.947 360.689,490.447 312.252,495.181 307.161,500.699 " />
<polygon stroke="black" stroke-width="1" fill="rgb(204, 204, 204)" fill-opacity="0.25" points="312.906,454.073 317.139,458.430 346.791,458.713 350.161,453.563 " />
<polygon stroke="black" stroke-width="1" fill="rgb(204, 204, 204)" fill-opacity="0.25" points="407.320,575.469 410.783,568.645 386.005,499.971 380.370,497.270 " />
<polygon stroke="black" stroke-width="1" fill="rgb(204, 204, 204)" fill-opacity="0.25" points="500.323,548.042 492.243,545.604 410.783,568.645 407.320,575.469 " />
<polygon stroke="black" stroke-width="1" fill="rgb(204, 204, 204)" fill-opacity="0.25" points="511.660,542.327 513.057,535.623 457.243,468.348 450.949,468.298 " />
<polygon stroke="black" stroke-width="1" fill="rgb(204, 204, 204)" fill-opacity="0.25" points="545.054,523.184 542.324,518.994 513.057,535.623 511.660,542.327 " />
<polygon stroke="black" stroke-width="1" fill="rgb(204, 204, 204)" fill-opacity="0.25" points="473.154,438.325 450.949,468.298 457.243,468.348 477.348,441.448 " />
<polygon stroke="black" stroke-width="1" fill="rgb(204, 204, 204)" fill-opacity="0.25" points="623.458,565.656 650.070,585.920 657.437,573.677 633.830,555.696 " />
<polygon stroke="black" stroke-width="1" fill="rgb(204, 204, 204)" fill-opacity="0.25" points="825.975,539.207 838.837,508.463 824.768,504.716 813.379,532.035 " />
<polygon stroke="black" stroke-width="1" fill="rgb(204, 204, 204)" fill-opacity="0.25" points="747.759,598.656 778.825,585.894 771.583,573.549 744.048,584.908 " />
<polygon stroke="black" stroke-width="1" fill="rgb(204, 204, 204)" fill-opacity="0.25" points="650.070,585.920 681.087,598.667 684.942,584.972 657.437,573.677 " />
<polygon stroke="black" stroke-width="1" fill="rgb(204, 204, 204)" fill-opacity="0.25" points="838.837,508.463 843.215,475.484 828.637,475.417 824.768,504.716 " />
<polygon stroke="black" stroke-width="1" fill="rgb(204, 204, 204)" fill-opacity="0.25" points="590.312,508.545 603.074,539.258 615.739,532.264 604.408,504.968 " />
<polygon stroke="black" stroke-width="1" fill="rgb(204, 204, 204)" fill-opacity="0.25" points="778.825,585.894 805.494,565.610 795.223,555.507 771.583,573.549 " />
<polygon stroke="black" stroke-width="1" fill="rgb(204, 204, 204)" fill-opacity="0.25" points="681.087,598.667 714.415,603.013 714.490,588.803 684.942,584.972 " />
<polygon stroke="black" stroke-width="1" fill="rgb(204, 204, 204)" fill-opacity="0.25" points="585.940,475.610 590.312,508.545 604.408,504.968 600.516,475.665 " />
<polygon stroke="black" stroke-width="1" fill="rgb(204, 204, 204)" fill-opacity="0.25" points="603.074,539.258 623.458,565.656 633.830,555.696 615.739,532.264 " />
<polygon stroke="black" stroke-width="1" fill="rgb(204, 204, 204)" fill-opacity="0.25" points="805.494,565.610 825.975,539.207 813.379,532.035 795.223,555.507 " />
<polygon stroke="black" stroke-width="1" fill="rgb(204, 204, 204)" fill-opacity="0.25" points="714.415,603.013 747.759,598.656 744.048,584.908 714.490,588.803 " />
<polygon stroke="black" stroke-width="1" fill="rgb(204, 204, 204)" fill-opacity="0.25" points="615.739,532.264 633.830,555.696 657.437,573.677 684.942,584.972 714.490,588.803 744.048,584.908 771.583,573.549 795.223,555.507 813.379,532.035 824.768,504.716 828.637,475.417 600.516,475.665 604.408,504.968 " />
<polygon stroke="black" stroke-width="1" fill="rgb(204, 204, 204)" fill-opacity="0.25" points="223.535,99.848 197.758,119.842 245.663,182.190 271.627,163.271 " />
<polygon stroke="black" stroke-width="1" fill="rgb(204, 204, 204)" fill-opacity="0.25" points="275.381,100.009 266.322,140.145 318.783,138.047 309.405,99.772 " />
<polygon stroke="black" stroke-width="1" fill="rgb(204, 204, 204)" fill-opacity="0.25" points="18.279,133.990 2.044,197.292 59.734,222.891 68.583,140.286 " />
<polygon stroke="black" stroke-width="1" fill="rgb(204, 204, 204)" fill-opacity="0.25" points="74.294,140.166 65.137,223.773 154.309,208.515 132.984,137.122 " />
<polygon stroke="black" stroke-width="1" fill="rgb(204, 204, 204)" fill-opacity="0.25" points="240.035,186.034 193.251,122.706 139.424,136.352 160.801,205.891 " />

</svg>
